<svg width="32" height="32" fill="none" xmlns="http://www.w3.org/2000/svg"><path d="M0 14.629c0-5.12 0-7.681.997-9.637A9.143 9.143 0 0 1 4.992.997C6.948 0 9.508 0 14.63 0h2.742c5.12 0 7.681 0 9.637.997a9.143 9.143 0 0 1 3.995 3.995C32 6.948 32 9.508 32 14.63v2.742c0 5.12 0 7.681-.997 9.637a9.143 9.143 0 0 1-3.995 3.995C25.052 32 22.492 32 17.37 32H14.63c-5.12 0-7.681 0-9.637-.997a9.143 9.143 0 0 1-3.995-3.995C0 25.052 0 22.492 0 17.37V14.63z" fill="#FF3D00"/><path d="M14.748 9.416c0-2.613 2.637-4.402 5.066-3.436.409.163.646.591.567 1.025l-.952 5.232h-1.47c2.128.675 3.755 2.657 3.755 5.122v3.273c0 .804-.414 1.551-1.096 1.977l-5.87 3.67V9.415zM8.952 21.64c0 1.899 2.064 3.08 3.701 2.116v-9.741l-3.7 1.143v6.482zm3.701-11.122h-.49a2.558 2.558 0 0 0-2.558 2.558l3.048-.926v-1.632z" fill="#fff"/><path d="M21.544 11.475V10.17c.98.389.218-1.524 0-1.687l-.653 3.755c.107-.04.197-.066.273-.088.3-.086.38-.11.38-.674z" fill="#fff"/></svg>