<svg fill="none" height="56" width="279" xmlns="http://www.w3.org/2000/svg"><path d="m0 25.6c0-8.96 0-13.441 1.744-16.864a16 16 0 0 1 6.992-6.992c3.424-1.744 7.904-1.744 16.864-1.744h4.8c8.96 0 13.441 0 16.864 1.744a16 16 0 0 1 6.992 6.992c1.744 3.424 1.744 7.904 1.744 16.864v4.8c0 8.96 0 13.441-1.744 16.864a16 16 0 0 1 -6.992 6.992c-3.424 1.744-7.904 1.744-16.864 1.744h-4.8c-8.96 0-13.441 0-16.864-1.744a16 16 0 0 1 -6.992-6.992c-1.744-3.424-1.744-7.904-1.744-16.864z" fill="#ff3d00"/><path d="m25.81 16.478c0-4.573 4.614-7.704 8.864-6.013a1.618 1.618 0 0 1 .993 1.793l-1.667 9.157h-2.573c3.726 1.18 6.573 4.65 6.573 8.962v5.729a4.08 4.08 0 0 1 -1.918 3.46l-10.273 6.42v-29.507zm-7.81 19.056c0 3.324 3.611 5.39 6.476 3.704v-17.048l-6.476 2zm6.476-17.153h-.857a4.476 4.476 0 0 0 -4.476 4.476l5.333-1.619z" fill="#fff"/><path d="m36.095 19.619v-2.286c1.715.68.381-2.666 0-2.952l-1.143 6.571c.187-.07.345-.115.478-.154.524-.15.665-.191.665-1.179z" fill="#fff"/><g fill="#000"><path d="m72.311 11.9h10.707c7.138 0 10.707 3.24 10.707 9.718 0 3.354-.903 5.848-2.709 7.482s-4.429 2.451-7.869 2.451h-5.332v10.449h-5.504zm10.191 15.05c1.892 0 3.297-.43 4.214-1.29.946-.86 1.419-2.179 1.419-3.956s-.473-3.082-1.419-3.913c-.946-.86-2.394-1.29-4.343-1.29h-4.558v10.449zm18.705 15.48c-1.777 0-3.268-.573-4.472-1.72-1.175-1.175-1.763-2.752-1.763-4.73 0-1.863.674-3.354 2.021-4.472 1.348-1.147 2.939-1.95 4.773-2.408 1.835-.487 3.598-.76 5.289-.817-.057-1.261-.387-2.164-.989-2.709-.573-.545-1.533-.817-2.881-.817-.946 0-1.877.129-2.795.387-.888.258-1.92.674-3.096 1.247l-.473-4.343c2.609-1.261 5.218-1.892 7.826-1.892 2.523 0 4.444.688 5.762 2.064 1.348 1.376 2.021 3.569 2.021 6.579v5.805c0 1.09.043 1.878.129 2.365.115.459.287.76.516.903.258.115.674.172 1.247.172h.688l-.473 4.386h-1.935c-1.175 0-2.164-.215-2.967-.645a4.78 4.78 0 0 1 -1.849-1.849c-.688.774-1.634 1.39-2.838 1.849a10.8 10.8 0 0 1 -3.741.645zm2.236-4.085c.545 0 1.161-.129 1.849-.387a5.918 5.918 0 0 0 1.806-1.161v-4.902c-1.72.086-3.239.459-4.558 1.118-1.318.66-1.978 1.577-1.978 2.752 0 .889.23 1.548.688 1.978.459.401 1.19.602 2.193.602zm24.512 4.085c-2.379 0-4.429-.487-6.149-1.462-1.691-1.003-2.967-2.35-3.827-4.042-.86-1.691-1.29-3.569-1.29-5.633 0-2.093.43-3.985 1.29-5.676.86-1.72 2.15-3.067 3.87-4.042 1.72-1.003 3.813-1.505 6.278-1.505 2.208 0 4.128.459 5.762 1.376l-.43 4.3c-1.548-.803-3.153-1.204-4.816-1.204-2.035 0-3.626.616-4.773 1.849-1.146 1.233-1.72 2.867-1.72 4.902 0 1.95.588 3.569 1.763 4.859 1.176 1.261 2.738 1.892 4.687 1.892 1.634 0 3.268-.473 4.902-1.419l.473 4.515c-.774.401-1.691.717-2.752.946-1.032.23-2.121.344-3.268.344zm9.55-32.68h5.332v19.565l6.665-8.815h6.02l-7.826 10.32 7.998 11.18h-6.02l-6.837-9.546v9.546h-5.332zm46.627 32.25-2.58-20.167-7.697 13.846-7.74-13.803-2.58 20.124h-5.719l4.171-30.1h4.515l7.353 13.717 7.31-13.717h4.515l4.171 30.1zm15.548-1.419-8.944-20.081h5.934l5.504 13.846 5.59-13.846h5.934l-13.459 31.906h-5.332z"/><path d="m219.421 17.232h-8.514v-5.332h22.532v5.332h-8.514v24.768h-5.504zm13.575 3.268h4.988l.129 2.279c.631-.717 1.433-1.347 2.408-1.892a6.492 6.492 0 0 1 3.139-.817c.344 0 .659.029.946.086l-.387 5.246a7.282 7.282 0 0 0 -1.849-.215c-.889 0-1.706.215-2.451.645-.745.401-1.276.903-1.591 1.505v14.663h-5.332zm14.193-8.6h5.332v5.332h-5.332zm0 8.6h5.332v21.5h-5.332zm21.553-.344c2.036 0 3.784.502 5.246 1.505s2.566 2.35 3.311 4.042c.746 1.691 1.118 3.555 1.118 5.59s-.372 3.899-1.118 5.59c-.745 1.691-1.849 3.039-3.311 4.042s-3.21 1.505-5.246 1.505c-1.29 0-2.393-.143-3.311-.43-.888-.258-1.748-.688-2.58-1.29v11.696h-5.332v-31.906h4.3l.559 1.978c.918-.774 1.878-1.347 2.881-1.72 1.004-.401 2.165-.602 3.483-.602zm-.817 17.888c1.577 0 2.81-.616 3.698-1.849.889-1.233 1.333-2.867 1.333-4.902s-.444-3.67-1.333-4.902c-.888-1.233-2.121-1.849-3.698-1.849-1.777 0-3.11.602-3.999 1.806-.888 1.204-1.333 2.852-1.333 4.945s.445 3.741 1.333 4.945c.889 1.204 2.222 1.806 3.999 1.806z"/></g></svg>