<svg width="60" height="60" viewBox="0 0 60 60" fill="none" xmlns="http://www.w3.org/2000/svg">
<path d="M27.2857 14C27.2857 14 26.8571 18.7143 32 18.7143C37.1428 18.7143 36.7142 14 36.7142 14H27.2857Z" fill="#FF3D00" fill-opacity="0.1"/>
<path d="M32 18.7143C26.8571 18.7143 27.2857 14 27.2857 14H26.4286C23.8571 14 20.8571 15.2857 20.8571 15.2857C20.8571 15.2857 18.7143 16.1429 17 18.7143C15.2857 21.2857 11 28.1429 11 28.1429L17 31.5714L20.8571 25.1429V50.4286H43.1429V25.1429L47 31.5714L53 28.1429C53 28.1429 48.7143 21.2857 47 18.7143C45.2857 16.1429 43.1429 15.2857 43.1429 15.2857C43.1429 15.2857 40.1429 14 37.5714 14H36.7142C36.7142 14 37.1428 18.7143 32 18.7143Z" fill="#FF3D00" fill-opacity="0.1"/>
<path d="M25.2857 12C25.2857 12 24.8571 16.7143 30 16.7143C35.1428 16.7143 34.7142 12 34.7142 12H25.2857Z" fill="#FF3D00" fill-opacity="0.3"/>
<path d="M25.2857 12C25.2857 12 24.8571 16.7143 30 16.7143C35.1428 16.7143 34.7142 12 34.7142 12M25.2857 12H34.7142M25.2857 12H24.4286M34.7142 12H35.5714M24.4286 12C21.8571 12 18.8571 13.2857 18.8571 13.2857C18.8571 13.2857 16.7143 14.1429 15 16.7143C13.2857 19.2857 9 26.1429 9 26.1429L15 29.5714L18.8571 23.1429V48.4286H41.1429V23.1429L45 29.5714L51 26.1429C51 26.1429 46.7143 19.2857 45 16.7143C43.2857 14.1429 41.1429 13.2857 41.1429 13.2857C41.1429 13.2857 38.1429 12 35.5714 12M24.4286 12H35.5714" stroke="#FF3D00" stroke-linecap="round" stroke-linejoin="round"/>
</svg>
