<svg width="60" height="60" viewBox="0 0 60 60" fill="none" xmlns="http://www.w3.org/2000/svg">
<path fill-rule="evenodd" clip-rule="evenodd" d="M19.6477 15.7159C19.6477 15.7159 24.5227 13.5 27.1818 13.5H27.1909C27.1909 13.5 26.7477 18.375 32.0659 18.375C37.384 18.375 36.9409 13.5 36.9409 13.5H37.8182C40.4773 13.5 45.3523 15.7159 45.3523 15.7159C50.6705 18.8182 52 27.6932 52 29.9091V47.1818H43.5795V51.1705H21.4205V47.1818H13V29.9091C13 27.6932 14.3295 18.8182 19.6477 15.7159Z" fill="#FF3D00" fill-opacity="0.1"/>
<path d="M36.9409 13.5H27.1909C27.1909 13.5 26.7477 18.375 32.0659 18.375C37.384 18.375 36.9409 13.5 36.9409 13.5Z" fill="#FF3D00" fill-opacity="0.1"/>
<path d="M34.9409 11.5H25.1909C25.1909 11.5 24.7477 16.375 30.0659 16.375C35.384 16.375 34.9409 11.5 34.9409 11.5Z" fill="#FF3D00" fill-opacity="0.3"/>
<path d="M19.4205 45.1818H11V27.9091C11 25.6932 12.3295 16.8182 17.6477 13.7159C17.6477 13.7159 22.5227 11.5 25.1818 11.5H35.8182C38.4773 11.5 43.3523 13.7159 43.3523 13.7159C48.6705 16.8182 50 25.6932 50 27.9091V45.1818H41.5795M19.4205 45.1818V23.4659M19.4205 45.1818V49.1705H41.5795V45.1818M41.5795 45.1818V23.4659M25.1909 11.5C25.1909 11.5 24.7477 16.375 30.0659 16.375C35.384 16.375 34.9409 11.5 34.9409 11.5H25.1909Z" stroke="#FF3D00" stroke-linecap="round" stroke-linejoin="round"/>
</svg>
