<svg width="60" height="60" viewBox="0 0 60 60" fill="none" xmlns="http://www.w3.org/2000/svg">
<path d="M33.9083 17.0523C33.2459 17.2174 32.5313 17.2174 32.5313 17.2174C32.5313 17.2174 32.5204 17.2174 32.5 17.2171C32.3519 17.2149 31.7036 17.1961 31.1108 17.0412L27.8884 20.3262L26.5238 12.8723C23.7563 13.072 19.9643 15.1786 19.9643 15.1786C14.3929 18.4286 13 25.3929 13 27.7143V47.2143H20.8929V51.3929H32.5V52.3215L44.1071 51.3929V47.2143H52V27.7143C52 25.3929 50.6071 18.4286 45.0357 15.1786C45.0357 15.1786 41.2994 13.1029 38.5375 12.8771L37.1743 20.3262L33.9083 17.0523Z" fill="#FF3D00" fill-opacity="0.1"/>
<path d="M34.615 16.7733C33.9131 17.2174 32.5313 17.2174 32.5313 17.2174C32.5313 17.2174 31.1498 17.2174 30.4476 16.7733C29.7454 16.3292 26.5067 12.7764 26.5067 12.7764C26.5067 12.7764 25.5668 11 32.5311 11C39.4954 11 38.5558 12.7764 38.5558 12.7764C38.5558 12.7764 35.3168 16.3292 34.615 16.7733Z" fill="#FF3D00" fill-opacity="0.1"/>
<path d="M30.5313 15.2174C30.5313 15.2174 30.6318 15.2174 30.7923 15.2087C31.1795 15.1877 31.916 15.116 32.4347 14.8715C32.4984 14.8415 32.5589 14.8088 32.615 14.7733C33.3168 14.3292 36.5558 10.7764 36.5558 10.7764C36.5558 10.7764 37.4954 9 30.5311 9C23.6818 9 24.4779 10.7181 24.506 10.7749L24.5067 10.7764C24.5067 10.7764 27.7454 14.3292 28.4476 14.7733C28.4915 14.801 28.538 14.8271 28.5867 14.8515C29.0443 15.0808 29.692 15.1664 30.1118 15.1984C30.2985 15.2126 30.4401 15.2162 30.5 15.2171C30.5177 15.2174 30.5288 15.2174 30.5313 15.2174Z" fill="#FF3D00" fill-opacity="0.3"/>
<path d="M30.5313 15.2174C30.5313 15.2174 30.5204 15.2174 30.5 15.2171M30.5313 15.2174C30.5313 15.2174 30.6318 15.2174 30.7923 15.2087M30.5313 15.2174C30.5288 15.2174 30.5177 15.2174 30.5 15.2171M30.5313 15.2174C30.5313 15.2174 30.362 15.2174 30.1118 15.1984M31.9083 15.0523L35.1743 18.3262M31.9083 15.0523C32.0934 15.0061 32.2744 14.9471 32.4347 14.8715M31.9083 15.0523C31.4943 15.1555 31.0599 15.1942 30.7923 15.2087M29.1108 15.0412L25.8884 18.3262M29.1108 15.0412C29.4639 15.1335 29.8367 15.1774 30.1118 15.1984M29.1108 15.0412C28.9249 14.9926 28.7445 14.9305 28.5867 14.8515M25.8884 18.3262L24.5238 10.8723C21.7563 11.072 17.9643 13.1786 17.9643 13.1786C12.3929 16.4286 11 23.3929 11 25.7143V45.2143H18.8929M25.8884 18.3262L24.506 10.7749M18.8929 45.2143V49.3929H30.5M18.8929 45.2143V22.4643M30.5 49.3929V50.3215L42.1071 49.3929V45.2143M30.5 49.3929V15.2171M42.1071 45.2143H50V25.7143C50 23.3929 48.6071 16.4286 43.0357 13.1786C43.0357 13.1786 39.2994 11.1029 36.5375 10.8771L35.1743 18.3262M42.1071 45.2143V22.4643M35.1743 18.3262L36.5567 10.7749L36.5558 10.7764M30.5 15.2171C30.4401 15.2162 30.2985 15.2126 30.1118 15.1984M36.5558 10.7764C36.5558 10.7764 33.3168 14.3292 32.615 14.7733C32.5589 14.8088 32.4984 14.8415 32.4347 14.8715M36.5558 10.7764C36.5558 10.7764 37.4954 9 30.5311 9M24.5067 10.7764C24.5067 10.7764 27.7454 14.3292 28.4476 14.7733C28.4915 14.801 28.538 14.8271 28.5867 14.8515M24.5067 10.7764C24.5067 10.7764 23.5668 9 30.5311 9M24.5067 10.7764L24.506 10.7749M30.5311 9C23.6818 9 24.4779 10.7181 24.506 10.7749M30.7923 15.2087C31.1795 15.1877 31.916 15.116 32.4347 14.8715M28.5867 14.8515C29.0443 15.0808 29.692 15.1664 30.1118 15.1984" stroke="#FF3D00" stroke-linecap="round" stroke-linejoin="round"/>
</svg>
