<svg width="60" height="60" viewBox="0 0 60 60" fill="none" xmlns="http://www.w3.org/2000/svg">
<path fill-rule="evenodd" clip-rule="evenodd" d="M19.0357 14.8214C19.0357 14.8214 23.2143 12.5 26 12.5C26.3714 15.7457 28.2538 18.0714 32.5 18.0714C36.7462 18.0714 38.6286 15.7457 39 12.5C41.7857 12.5 45.9643 14.8214 45.9643 14.8214C51.5357 18.0714 52 27.1786 52 29.5V45H44.1071V47.7857V51.9643H20.8929V47.7857V45H13V29.5C13 27.1786 13.4643 18.0714 19.0357 14.8214ZM35.9756 12.5H29.0244C29.2595 13.9978 30.5876 15.5 32.5 15.5C34.4124 15.5 35.7405 13.9978 35.9756 12.5Z" fill="#FF3D00" fill-opacity="0.1"/>
<path d="M33.9756 10.5H27.0244C27.2595 11.9978 28.5876 13.5 30.5 13.5C32.4124 13.5 33.7405 11.9978 33.9756 10.5Z" fill="#FF3D00" fill-opacity="0.3"/>
<path d="M24 10.5C21.2143 10.5 17.0357 12.8214 17.0357 12.8214C11.4643 16.0714 11 25.1786 11 27.5V45.7857M24 10.5H37M24 10.5H27.0244M24 10.5C24.3714 13.7457 26.2538 16.0714 30.5 16.0714C34.7462 16.0714 36.6286 13.7457 37 10.5M11 45.7857H18.8929M11 45.7857V43H18.8929V45.7857M18.8929 45.7857V23.0357M18.8929 45.7857V49.9643H42.1071V45.7857M37 10.5C39.7857 10.5 43.9643 12.8214 43.9643 12.8214C49.5357 16.0714 50 25.1786 50 27.5V45.7857M37 10.5H33.9756M50 45.7857H42.1071M50 45.7857V43H42.1071V45.7857M42.1071 45.7857V23.0357M33.9756 10.5C33.7405 11.9978 32.4124 13.5 30.5 13.5C28.5876 13.5 27.2595 11.9978 27.0244 10.5M33.9756 10.5H27.0244" stroke="#FF3D00" stroke-linecap="round" stroke-linejoin="round"/>
</svg>
