<svg width="60" height="60" viewBox="0 0 60 60" fill="none" xmlns="http://www.w3.org/2000/svg">
<path d="M37.8182 13.2727C37.8182 13.2727 37.8182 11.5 32.5 11.5C27.1818 11.5 27.1818 13.2727 27.1818 13.2727C27.4857 15.5964 29.0258 16.8182 32.5 16.8182C35.9742 16.8182 37.5143 15.5964 37.8182 13.2727Z" fill="#FF3D00" fill-opacity="0.1"/>
<path fill-rule="evenodd" clip-rule="evenodd" d="M19.6477 16.375C15.3953 18.4968 13 28.3523 13 30.5682V45.1818H21.4205V47.8409V49.1704H43.5795V47.8409V45.1818H52V30.5682C52 28.3523 49.6047 18.4968 45.3523 16.375C43.8106 15.6058 42.7926 15.4929 41.2994 15.3274C41.0273 15.2973 40.7395 15.2654 40.4298 15.2274C40.1784 16.0613 38.7663 19.4773 32.5 19.4773C26.2337 19.4773 24.8216 16.0613 24.5702 15.2274C24.2605 15.2654 23.9727 15.2973 23.7006 15.3274C22.2074 15.4929 21.1894 15.6058 19.6477 16.375Z" fill="#FF3D00" fill-opacity="0.1"/>
<path d="M35.8182 11.2727C35.8182 11.2727 35.8182 9.5 30.5 9.5C25.1818 9.5 25.1818 11.2727 25.1818 11.2727C25.4857 13.5964 27.0258 14.8182 30.5 14.8182C33.9742 14.8182 35.5143 13.5964 35.8182 11.2727Z" fill="#FF3D00" fill-opacity="0.3"/>
<path d="M11 45.8409C11 45.8409 11 30.7841 11 28.5682C11 26.3523 13.3953 16.4968 17.6477 14.375C19.4703 13.4656 20.561 13.4736 22.5702 13.2274M11 45.8409H19.4205M11 45.8409V43.1818H19.4205V45.8409M19.4205 45.8409V24.125M19.4205 45.8409V49.8295M19.4205 49.8295H41.5795M19.4205 49.8295V47.1704H41.5795V49.8295M50 45.8409C50 45.8409 50 30.7841 50 28.5682C50 26.3523 47.6047 16.4968 43.3523 14.375C41.5297 13.4656 40.439 13.4736 38.4298 13.2274M50 45.8409H41.5795M50 45.8409V43.1818H41.5795V45.8409M41.5795 45.8409V24.125M41.5795 45.8409V49.8295M25.1818 11.2727C25.1818 11.2727 23.7153 13.0705 23.4091 13.1152C23.1113 13.1587 22.8329 13.1952 22.5702 13.2274M25.1818 11.2727C25.1818 11.2727 25.1818 9.5 30.5 9.5C35.8182 9.5 35.8182 11.2727 35.8182 11.2727M25.1818 11.2727C25.4857 13.5964 27.0258 14.8182 30.5 14.8182C33.9742 14.8182 35.5143 13.5964 35.8182 11.2727M35.8182 11.2727C35.8182 11.2727 37.2847 13.0705 37.5909 13.1152C37.8887 13.1587 38.1671 13.1952 38.4298 13.2274M22.5702 13.2274C22.8216 14.0613 24.2337 17.4773 30.5 17.4773C36.7663 17.4773 38.1784 14.0613 38.4298 13.2274" stroke="#FF3D00" stroke-linecap="round" stroke-linejoin="round"/>
</svg>
