<svg width="60" height="60" viewBox="0 0 60 60" fill="none" xmlns="http://www.w3.org/2000/svg">
<path d="M38.2651 12.2439C38.2651 12.2439 39.3202 10.5 31.4999 10.5C23.6795 10.5 24.735 12.2439 24.735 12.2439L31.5 21.1364L38.2651 12.2439Z" fill="#FF3D00" fill-opacity="0.1"/>
<path d="M21.75 15.8182C19.0909 15.8182 17.7614 18.0341 17.7614 18.0341C17.7614 18.0341 12 28.6705 12 30.8864V46.8411L20.4205 46.841V49.5V53.4887L20.4208 50.8297H31.1126H42.5799L42.5795 49.5V46.841L50.9983 46.8411V49.5002L51 49.5V30.8864C51 28.6705 45.2386 18.0341 45.2386 18.0341C45.2386 18.0341 43.9091 15.8182 41.25 15.8182L41.2318 15.8282C41.2718 15.9883 41.248 16.1073 41.1389 16.1677C40.3507 16.6037 31.5 21.1364 31.5 21.1364C31.5 21.1364 22.6497 16.6037 21.8612 16.1677C21.752 16.1073 21.7282 15.9883 21.7682 15.8282L21.75 15.8182Z" fill="#FF3D00" fill-opacity="0.1"/>
<path d="M31.5 21.1364C31.5 21.1364 40.3507 16.6037 41.1389 16.1677C41.248 16.1073 41.2718 15.9883 41.2318 15.8282L31.5 21.1364Z" fill="#FF3D00" fill-opacity="0.1"/>
<path d="M21.8612 16.1677C22.6497 16.6037 31.5 21.1364 31.5 21.1364L21.7682 15.8282C21.7282 15.9883 21.752 16.1073 21.8612 16.1677Z" fill="#FF3D00" fill-opacity="0.1"/>
<path d="M37.2651 10.2439C37.2651 10.2439 38.3202 8.5 30.4999 8.5C22.6795 8.5 23.735 10.2439 23.735 10.2439L30.5 19.1364L37.2651 10.2439Z" fill="#FF3D00" fill-opacity="0.3"/>
<path d="M11 47.5V28.8864C11 26.6705 16.7614 16.0341 16.7614 16.0341C16.7614 16.0341 18.0909 13.8182 20.75 13.8182L30.5 19.1364M11 47.5H19.4205M11 47.5V44.8411L19.4205 44.841V47.5M19.4205 47.5V26.6705M19.4205 47.5V51.4887M19.4205 51.4887H41.5795M19.4205 51.4887L19.4208 48.8297H30.1126M41.5795 47.5H50V28.8864C50 26.6705 44.2386 16.0341 44.2386 16.0341C44.2386 16.0341 42.9091 13.8182 40.25 13.8182L30.5 19.1364M41.5795 47.5V26.6705M41.5795 47.5V51.4887M41.5795 47.5L49.9983 47.5002V44.8411L41.5795 44.841V47.5ZM41.5795 51.4887L41.5799 48.8297H30.1126M30.5 19.1364C30.5 19.1364 39.3507 14.6037 40.1389 14.1677C40.927 13.7317 37.2651 10.2439 37.2651 10.2439M30.5 19.1364C30.5 19.1364 21.6497 14.6037 20.8612 14.1677C20.0727 13.7317 23.735 10.2439 23.735 10.2439M30.5 19.1364L23.735 10.2439M30.5 19.1364L37.2651 10.2439M37.2651 10.2439C37.2651 10.2439 38.3202 8.5 30.4999 8.5C22.6795 8.5 23.735 10.2439 23.735 10.2439M30.1126 19.6364L30.1126 48.8297M30.1126 50.5455V48.8297" stroke="#FF3D00" stroke-linecap="round" stroke-linejoin="round"/>
</svg>
