<svg width="60" height="60" viewBox="0 0 60 60" fill="none" xmlns="http://www.w3.org/2000/svg">
<path d="M43 52.6154V15.3846H42.6728V23C41.9676 23 40.5574 23 38.8651 21.3077C37.1728 19.6154 36.8907 16.5128 37.1728 15.3846H26.5C26.7821 16.5128 26.5 19.6154 24.8077 21.3077C23.1154 23 21.7051 23 21 23V52.6154H28.6154L32 24.6923L35.3846 52.6154H43Z" fill="#FF3D00" fill-opacity="0.1"/>
<path d="M21 15.3846V23C21.7051 23 23.1154 23 24.8077 21.3077C26.5 19.6154 26.7821 16.5128 26.5 15.3846H21Z" fill="#FF3D00" fill-opacity="0.1"/>
<path d="M42.6728 15.3846H37.1728C36.8907 16.5128 37.1728 19.6154 38.8651 21.3077C40.5574 23 41.9676 23 42.6728 23V15.3846Z" fill="#FF3D00" fill-opacity="0.1"/>
<path d="M19 13.3846V21C19.7051 21 21.1154 21 22.8077 19.3077C24.5 17.6154 24.7821 14.5128 24.5 13.3846H19Z" fill="#FF3D00" fill-opacity="0.3"/>
<path d="M40.6728 13.3846H35.1728C34.8907 14.5128 35.1728 17.6154 36.8651 19.3077C38.5574 21 39.9676 21 40.6728 21V13.3846Z" fill="#FF3D00" fill-opacity="0.3"/>
<path d="M19 10H41M19 10V50.6154H26.6154L30 22.6923L33.3846 50.6154H41V10M19 10V13.3846M41 10V13.3846H19M19 13.3846H24.5C24.7821 14.5128 24.5 17.6154 22.8077 19.3077C21.1154 21 19.7051 21 19 21V13.3846ZM40.6728 13.3846H35.1728C34.8907 14.5128 35.1728 17.6154 36.8651 19.3077C38.5574 21 39.9676 21 40.6728 21V13.3846Z" stroke="#FF3D00" stroke-linecap="round" stroke-linejoin="round"/>
</svg>
