<svg width="60" height="60" viewBox="0 0 60 60" fill="none" xmlns="http://www.w3.org/2000/svg">
<path d="M26.9866 20.25H19.8125L19 23.5V30C20.0239 30 22.0718 30 24.5292 27.8333C26.9866 25.6667 27.3962 21.6944 26.9866 20.25Z" fill="#FF3D00" fill-opacity="0.1"/>
<path d="M37.0134 20.25H26.9866C27.3962 21.6944 26.9866 25.6667 24.5292 27.8333C22.0718 30 20.0239 30 19 30V47.0625H30.6875L32 33.25L33.3125 47.0625H45V30C43.9761 30 41.9282 30 39.4708 27.8333C37.0134 25.6667 36.6038 21.6944 37.0134 20.25Z" fill="#FF3D00" fill-opacity="0.1"/>
<path d="M44.1875 20.25H37.0134C36.6038 21.6944 37.0134 25.6667 39.4708 27.8333C41.9282 30 43.9761 30 45 30V23.5L44.1875 20.25Z" fill="#FF3D00" fill-opacity="0.1"/>
<path d="M42.1875 18.25H35.0134C34.6038 19.6944 35.0134 23.6667 37.4708 25.8333C39.9282 28 41.9761 28 43 28V21.5L42.1875 18.25Z" fill="#FF3D00" fill-opacity="0.3"/>
<path d="M24.9866 18.25H17.8125L17 21.5V28C18.0239 28 20.0718 28 22.5292 25.8333C24.9866 23.6667 25.3962 19.6944 24.9866 18.25Z" fill="#FF3D00" fill-opacity="0.3"/>
<path d="M17.8125 18.25H42.1875M17.8125 18.25L17 21.5M17.8125 18.25V15H42.1875V18.25M17.8125 18.25H24.9866C25.3962 19.6944 24.9866 23.6667 22.5292 25.8333C20.0718 28 18.0239 28 17 28V21.5M42.1875 18.25L43 21.5M42.1875 18.25H35.0134C34.6038 19.6944 35.0134 23.6667 37.4708 25.8333C39.9282 28 41.9761 28 43 28V21.5M43 21.5V45.0625H31.3125L30 31.25L28.6875 45.0625H17V21.5" stroke="#FF3D00" stroke-linecap="round" stroke-linejoin="round"/>
</svg>
