<svg width="60" height="60" viewBox="0 0 60 60" fill="none" xmlns="http://www.w3.org/2000/svg">
<path d="M42 49.2727V15.6364H22V49.2727H28.3636V52C28.3636 52 28.3636 25.6364 32 25.6364C35.6364 25.6364 35.6364 52 35.6364 52V49.2727H42Z" fill="#FF3D00" fill-opacity="0.1"/>
<path d="M20 10H40M20 10V50M20 10V13.6364H40V10M40 10V50M40 50H33.6364M40 50V47.2727H33.6364V50M33.6364 50C33.6364 50 33.6364 23.6364 30 23.6364C26.3636 23.6364 26.3636 50 26.3636 50M26.3636 50H20M26.3636 50V47.2727H20V50" stroke="#FF3D00" stroke-linecap="round" stroke-linejoin="round"/>
</svg>
