<svg width="60" height="60" viewBox="0 0 60 60" fill="none" xmlns="http://www.w3.org/2000/svg">
<path d="M22.4254 44.0147C22.4254 47.0027 21.1522 47.0027 21.1522 47.0027C21.1522 47.0027 16.4569 47.8565 16.0299 50.8445C15.6029 53.8325 19.8716 52.9788 21.1522 52.5519C21.7814 52.3422 23.5423 51.8233 25.171 51.0966C25.171 51.0966 24.9941 49.5639 25.8479 47.4296C26.7016 45.2953 28.4567 44.0147 28.4567 44.0147C28.6348 36.8268 29.1926 27.9986 30.8564 24.8059C31.0327 24.4675 31.4082 24.0739 31.8089 24.0739V15.4149H22.433V12H22.4254V44.0147Z" fill="#FF3D00" fill-opacity="0.1"/>
<path d="M42.4656 47.0027C42.4656 47.0027 41.1924 47.0027 41.1924 44.0147V15.4149H31.8089V24.0739C32.2096 24.0739 32.5852 24.4675 32.7615 24.8059C34.4252 27.9986 34.983 36.8268 35.1612 44.0147C35.1612 44.0147 36.9163 45.2953 37.77 47.4296C38.6237 49.5639 38.4469 51.0966 38.4469 51.0966C40.0755 51.8233 41.8364 52.3422 42.4656 52.5519C43.7462 52.9788 48.0149 53.8325 47.588 50.8445C47.161 47.8565 42.4656 47.0027 42.4656 47.0027Z" fill="#FF3D00" fill-opacity="0.1"/>
<path d="M35.1612 44.0147C35.1866 45.0394 35.2043 47.4968 35.2163 48.2833C35.2163 49.369 36.7607 50.3442 38.4469 51.0966C38.4469 51.0966 38.6237 49.5639 37.77 47.4296C36.9163 45.2953 35.1612 44.0147 35.1612 44.0147Z" fill="#FF3D00" fill-opacity="0.1"/>
<path d="M28.4015 48.2833C28.4136 47.4968 28.4313 45.0394 28.4567 44.0147C28.4567 44.0147 26.7016 45.2953 25.8479 47.4296C24.9941 49.5639 25.171 51.0966 25.171 51.0966C26.8571 50.3442 28.4015 49.369 28.4015 48.2833Z" fill="#FF3D00" fill-opacity="0.1"/>
<path d="M26.4015 46.2833C26.4136 45.4968 26.4313 43.0394 26.4567 42.0147C26.4567 42.0147 24.7016 43.2953 23.8479 45.4296C22.9941 47.5639 23.171 49.0966 23.171 49.0966C24.8571 48.3442 26.4015 47.369 26.4015 46.2833Z" fill="#FF3D00" fill-opacity="0.3"/>
<path d="M33.1612 42.0147C33.1866 43.0394 33.2043 45.4968 33.2163 46.2833C33.2163 47.369 34.7607 48.3442 36.4469 49.0966C36.4469 49.0966 36.6237 47.5639 35.77 45.4296C34.9163 43.2953 33.1612 42.0147 33.1612 42.0147Z" fill="#FF3D00" fill-opacity="0.3"/>
<path d="M26.4567 42.0147C26.6348 34.8268 27.1926 25.9986 28.8564 22.8059C29.0327 22.4675 29.4082 22.0739 29.8089 22.0739M26.4567 42.0147C26.4313 43.0394 26.4136 45.4968 26.4015 46.2833C26.4015 47.369 24.8571 48.3442 23.171 49.0966M26.4567 42.0147C26.4567 42.0147 24.7016 43.2953 23.8479 45.4296C22.9941 47.5639 23.171 49.0966 23.171 49.0966M23.171 49.0966C21.5423 49.8233 19.7814 50.3422 19.1522 50.5519C17.8716 50.9788 13.6029 51.8325 14.0299 48.8445C14.4569 45.8565 19.1522 45.0027 19.1522 45.0027C19.1522 45.0027 20.4254 45.0027 20.4254 42.0147V10H39.1924V42.0147C39.1924 45.0027 40.4656 45.0027 40.4656 45.0027C40.4656 45.0027 45.161 45.8565 45.588 48.8445C46.0149 51.8325 41.7462 50.9788 40.4656 50.5519C39.8364 50.3422 38.0755 49.8233 36.4469 49.0966M33.1612 42.0147C32.983 34.8268 32.4252 25.9986 30.7615 22.8059C30.5852 22.4675 30.2096 22.0739 29.8089 22.0739M33.1612 42.0147C33.1866 43.0394 33.2043 45.4968 33.2163 46.2833C33.2163 47.369 34.7607 48.3442 36.4469 49.0966M33.1612 42.0147C33.1612 42.0147 34.9163 43.2953 35.77 45.4296C36.6237 47.5639 36.4469 49.0966 36.4469 49.0966M29.8089 22.0739V13.4149M20.433 10H39.2149V13.4149H20.433V10Z" stroke="#FF3D00" stroke-linecap="round" stroke-linejoin="round"/>
</svg>
