<svg width="60" height="60" viewBox="0 0 60 60" fill="none" xmlns="http://www.w3.org/2000/svg">
<path d="M20.7886 12.9295C23.059 11.5234 25.0336 11 27.3491 11H27.357H35.847H36.6109C38.9264 11 40.901 11.5234 43.1714 12.9295C48.136 16.0043 48.96 26.717 48.96 26.717L41.6277 27.717V43.8023H40.6805V44.3987V53.2395H32.1905H23.7005V44.3987V43.8023H22.3323V27.717L15 26.717C15 22.8228 15.824 16.0043 20.7886 12.9295Z" fill="#FF3D00" fill-opacity="0.1"/>
<path d="M33.847 9H25.357C25.357 9 24.9711 13.245 29.602 13.245C34.2329 13.245 33.847 9 33.847 9Z" fill="#FF3D00" fill-opacity="0.3"/>
<path d="M20.3323 25.717V19.4195M20.3323 25.717V41.8023H39.6277V25.717M20.3323 25.717L13 24.717C13 20.8228 13.824 14.0043 18.7886 10.9295C21.059 9.52341 23.0336 9 25.3491 9H34.6109C36.9264 9 38.901 9.52341 41.1714 10.9295C46.136 14.0043 46.96 24.717 46.96 24.717L39.6277 25.717M39.6277 25.717V19.4195M21.7005 42.3987V51.2395M38.6805 42.3987V51.2395M30.1905 47.0296V51.2395M25.357 9C25.357 9 24.9711 13.245 29.602 13.245C34.2329 13.245 33.847 9 33.847 9H25.357Z" stroke="#FF3D00" stroke-linecap="round" stroke-linejoin="round"/>
</svg>
