<svg width="60" height="60" viewBox="0 0 60 60" fill="none" xmlns="http://www.w3.org/2000/svg">
<path d="M26 18C28 18 30 22 32 23C34 22 36 18 38 18C40 18 40 20 40 20C40 25 39 25.5917 39 31C39 36.4966 43.8376 45 43.8376 50.5L44 53H20L20.1624 50.5C20.1624 45 25 36.4966 25 31C25 25.5917 24 25 24 20C24 20 24 18 26 18Z" fill="#FF3D00" fill-opacity="0.1"/>
<path d="M24 16C26 16 28 20 30 21C32 20 34 16 36 16M24 16C22 16 22 18 22 18C22 23 23 23.5917 23 29C23 34.4966 18.1624 43 18.1624 48.5L18 51H42L41.8376 48.5C41.8376 43 37 34.4966 37 29C37 23.5917 38 23 38 18C38 18 38 16 36 16M24 16L24 8M36 16V8" stroke="#FF3D00" stroke-linecap="round" stroke-linejoin="round"/>
</svg>
