<svg width="60" height="60" viewBox="0 0 60 60" fill="none" xmlns="http://www.w3.org/2000/svg">
<path d="M26 13C28 13 30 17 32 18C34 17 36 13 38 13C38 13 36 12 32 12C28 12 26 13 26 13Z" fill="#FF3D00" fill-opacity="0.1"/>
<path d="M21.0003 53.5H43.0003L42.8376 45.5C42.8376 44.2955 42.6535 42.9469 42.366 41.5174L47 40.5C46.6667 36.8333 45 31.5 45 25C45 18.5 40.5 14 38 13C36 13 34 17 32 18C30 17 28 13 26 13C23.5 14 19 18.5 19 25C19 31.5 17.3333 36.8333 17 40.5L21.634 41.5174C21.3465 42.9469 21.1624 44.2955 21.1624 45.5L21.0003 53.5Z" fill="#FF3D00" fill-opacity="0.1"/>
<path d="M24 11C26 11 28 15 30 16C32 15 34 11 36 11C36 11 34 10 30 10C26 10 24 11 24 11Z" fill="#FF3D00" fill-opacity="0.3"/>
<path d="M41.0003 51.5V52H41.5106L41.5002 51.4898L41.0003 51.5ZM19.0003 51.5L18.5004 51.4899L18.4901 52H19.0003V51.5ZM30 16L29.7764 16.4472C29.9172 16.5176 30.0828 16.5176 30.2236 16.4472L30 16ZM19.1624 43.5L19.6624 43.5101V43.5H19.1624ZM40.8376 43.5H40.3375L40.3377 43.5102L40.8376 43.5ZM23.104 18.919C23.0593 18.6465 22.8021 18.4619 22.5296 18.5066C22.2572 18.5513 22.0725 18.8085 22.1172 19.081L23.104 18.919ZM37.8828 19.081C37.9275 18.8085 37.7428 18.5513 37.4704 18.5066C37.1979 18.4619 36.9407 18.6465 36.896 18.919L37.8828 19.081ZM15 38.5L14.5021 38.4547L14.4621 38.8938L14.8928 38.9884L15 38.5ZM45 38.5L45.1072 38.9884L45.5379 38.8938L45.4979 38.4547L45 38.5ZM41.0003 51H19.0003V52H41.0003V51ZM24 11.5C24.3347 11.5 24.7255 11.67 25.1922 12.0346C25.6533 12.3949 26.1274 12.8959 26.6263 13.4572C27.1135 14.0053 27.6311 14.6191 28.141 15.1449C28.6503 15.6701 29.1982 16.1581 29.7764 16.4472L30.2236 15.5528C29.8018 15.3419 29.3497 14.9549 28.8589 14.4488C28.3689 13.9434 27.8865 13.3697 27.3737 12.7928C26.8726 12.2291 26.3467 11.6676 25.8078 11.2466C25.2745 10.83 24.6653 10.5 24 10.5V11.5ZM30.2236 16.4472C30.8018 16.1581 31.3497 15.6701 31.8589 15.1449C32.3689 14.6191 32.8865 14.0053 33.3737 13.4572C33.8726 12.8959 34.3467 12.3949 34.8078 12.0346C35.2745 11.67 35.6653 11.5 36 11.5V10.5C35.3347 10.5 34.7255 10.83 34.1922 11.2466C33.6533 11.6676 33.1274 12.2291 32.6263 12.7928C32.1135 13.3697 31.6311 13.9434 31.141 14.4488C30.6503 14.9549 30.1982 15.3419 29.7764 15.5528L30.2236 16.4472ZM19.5002 51.5101L19.6623 43.5101L18.6625 43.4899L18.5004 51.4899L19.5002 51.5101ZM19.6624 43.5C19.6624 40.8324 20.5974 37.4056 21.5634 33.8809C22.5161 30.4048 23.5 26.8307 23.5 24H22.5C22.5 26.6658 21.5651 30.0917 20.599 33.6165C19.6463 37.0927 18.6624 40.6676 18.6624 43.5H19.6624ZM36.5 24C36.5 26.8307 37.4839 30.4048 38.4366 33.8809C39.4026 37.4056 40.3376 40.8324 40.3376 43.5H41.3376C41.3376 40.6676 40.3537 37.0927 39.401 33.6165C38.4349 30.0917 37.5 26.6658 37.5 24H36.5ZM40.3377 43.5102L40.5004 51.5102L41.5002 51.4898L41.3375 43.4898L40.3377 43.5102ZM24 11C24.2236 11.4472 24.2234 11.4473 24.2233 11.4474C24.2232 11.4474 24.2231 11.4475 24.223 11.4475C24.2228 11.4476 24.2227 11.4477 24.2226 11.4477C24.2223 11.4478 24.2222 11.4479 24.2223 11.4479C24.2223 11.4479 24.2228 11.4476 24.2238 11.4471C24.2258 11.4461 24.2298 11.4443 24.2357 11.4415C24.2474 11.436 24.2669 11.427 24.2942 11.4151C24.3486 11.3913 24.4341 11.3556 24.5506 11.3119C24.7834 11.2246 25.1403 11.1053 25.6213 10.9851C26.5828 10.7447 28.0421 10.5 30 10.5V9.5C27.9579 9.5 26.4172 9.75532 25.3787 10.0149C24.8597 10.1447 24.4666 10.2754 24.1994 10.3756C24.0659 10.4257 23.9639 10.4681 23.8933 10.499C23.8581 10.5144 23.8307 10.5269 23.8112 10.536C23.8015 10.5406 23.7937 10.5443 23.7879 10.5471C23.785 10.5485 23.7826 10.5497 23.7807 10.5507C23.7797 10.5511 23.7789 10.5516 23.7782 10.5519C23.7778 10.5521 23.7775 10.5522 23.7772 10.5524C23.777 10.5525 23.7768 10.5526 23.7768 10.5526C23.7766 10.5527 23.7764 10.5528 24 11ZM30 10.5C31.9579 10.5 33.4172 10.7447 34.3787 10.9851C34.8597 11.1053 35.2166 11.2246 35.4494 11.3119C35.5659 11.3556 35.6514 11.3913 35.7058 11.4151C35.7331 11.427 35.7526 11.436 35.7643 11.4415C35.7702 11.4443 35.7742 11.4461 35.7762 11.4471C35.7772 11.4476 35.7777 11.4479 35.7777 11.4479C35.7778 11.4479 35.7777 11.4478 35.7774 11.4477C35.7773 11.4477 35.7772 11.4476 35.777 11.4475C35.7769 11.4475 35.7768 11.4474 35.7767 11.4474C35.7766 11.4473 35.7764 11.4472 36 11C36.2236 10.5528 36.2234 10.5527 36.2232 10.5526C36.2232 10.5526 36.223 10.5525 36.2228 10.5524C36.2225 10.5522 36.2222 10.5521 36.2218 10.5519C36.2211 10.5516 36.2203 10.5511 36.2193 10.5507C36.2174 10.5497 36.215 10.5485 36.2121 10.5471C36.2063 10.5443 36.1985 10.5406 36.1888 10.536C36.1693 10.5269 36.1419 10.5144 36.1067 10.499C36.0361 10.4681 35.9341 10.4257 35.8006 10.3756C35.5334 10.2754 35.1403 10.1447 34.6213 10.0149C33.5828 9.75532 32.0421 9.5 30 9.5V10.5ZM23.5 24C23.5 21.666 23.3158 20.2091 23.104 18.919L22.1172 19.081C22.3218 20.3274 22.5 21.7294 22.5 24H23.5ZM36.896 18.919C36.6842 20.2091 36.5 21.666 36.5 24H37.5C37.5 21.7294 37.6782 20.3274 37.8828 19.081L36.896 18.919ZM23.8143 10.5358C22.4506 11.0812 20.6295 12.5322 19.1523 14.6516C17.6664 16.7835 16.5 19.6314 16.5 23H17.5C17.5 19.8686 18.5836 17.2165 19.9727 15.2234C21.3705 13.2178 23.0494 11.9188 24.1857 11.4642L23.8143 10.5358ZM16.5 23C16.5 26.208 16.0888 29.1338 15.6326 31.7258C15.1804 34.2949 14.6712 36.5939 14.5021 38.4547L15.4979 38.5453C15.6621 36.7394 16.1529 34.5384 16.6174 31.8992C17.0779 29.2829 17.5 26.292 17.5 23H16.5ZM14.8928 38.9884L19.5268 40.0058L19.7412 39.0291L15.1072 38.0116L14.8928 38.9884ZM35.8143 11.4642C36.9506 11.9188 38.6295 13.2178 40.0273 15.2234C41.4164 17.2165 42.5 19.8686 42.5 23H43.5C43.5 19.6314 42.3336 16.7835 40.8477 14.6516C39.3705 12.5322 37.5494 11.0812 36.1857 10.5358L35.8143 11.4642ZM42.5 23C42.5 26.292 42.9221 29.2829 43.3826 31.8992C43.8471 34.5384 44.3379 36.7394 44.5021 38.5453L45.4979 38.4547C45.3288 36.5939 44.8196 34.2949 44.3674 31.7258C43.9112 29.1338 43.5 26.208 43.5 23H42.5ZM44.8928 38.0116L40.2588 39.0291L40.4732 40.0058L45.1072 38.9884L44.8928 38.0116Z" fill="#FF3D00"/>
</svg>
