<svg width="60" height="60" viewBox="0 0 60 60" fill="none" xmlns="http://www.w3.org/2000/svg">
<path d="M12 36.0873L14.6088 20C14.6088 20 18.7628 21.2462 31.131 21.3024H32.869C45.2372 21.2462 49.3912 20 49.3912 20L52 36.0873C52 36.0873 46.7824 36.0873 41.9997 38.2612C41.1637 38.6412 40.4606 39.0876 39.8647 39.5656C37.0516 41.8224 36.6301 44.7834 35.0429 44.7834H32.8702H31.1298H28.9571C27.3699 44.7834 26.9484 41.8224 24.1353 39.5656C23.5394 39.0876 22.8363 38.6412 22.0003 38.2612C17.2176 36.0873 12 36.0873 12 36.0873Z" fill="#FF3D00" fill-opacity="0.1"/>
<path d="M22.1353 37.5656C24.9484 39.8224 25.3699 42.7834 26.9571 42.7834C28.5443 42.7834 29.1298 42.7834 29.1298 42.7834H30.8702C30.8702 42.7834 31.4557 42.7834 33.0429 42.7834C34.6301 42.7834 35.0516 39.8224 37.8647 37.5656M22.1353 37.5656C21.5394 37.0876 20.8363 36.6412 20.0003 36.2612C15.2176 34.0873 10 34.0873 10 34.0873L12.6088 18C12.6088 18 16.7628 19.2462 29.131 19.3024H30.869C43.2372 19.2462 47.3912 18 47.3912 18L50 34.0873C50 34.0873 44.7824 34.0873 39.9997 36.2612C39.1637 36.6412 38.4606 37.0876 37.8647 37.5656M22.1353 37.5656V31.9133C22.1353 28.0001 23.9122 24.9565 23.9122 24.9565M37.8647 37.5656V31.9133C37.8647 28.0001 36.0878 24.9565 36.0878 24.9565" stroke="#FF3D00" stroke-linecap="round" stroke-linejoin="round"/>
</svg>
