<svg width="60" height="60" viewBox="0 0 60 60" fill="none" xmlns="http://www.w3.org/2000/svg">
<path d="M12 29.3514L12.8703 25H51.3797L52.25 29.3514C52.25 29.3514 45.723 29.7865 39.6311 32.8324C34.4272 35.4344 34.8446 43.2757 33.5392 43.2757H30.7108C29.4054 43.2757 29.8228 35.4344 24.6189 32.8324C18.527 29.7865 12 29.3514 12 29.3514Z" fill="#FF3D00" fill-opacity="0.1"/>
<path d="M10.8703 23L10 27.3514C10 27.3514 16.527 27.7865 22.6189 30.8324C27.8228 33.4344 27.4054 41.2757 28.7108 41.2757H31.5392C32.8446 41.2757 32.4272 33.4344 37.6311 30.8324C43.723 27.7865 50.25 27.3514 50.25 27.3514L49.3797 23H10.8703Z" stroke="#FF3D00" stroke-linecap="round" stroke-linejoin="round"/>
</svg>
