<svg width="60" height="60" viewBox="0 0 60 60" fill="none" xmlns="http://www.w3.org/2000/svg">
<path d="M21.5428 46.7523C15.6762 45.9142 14.419 43.819 14.419 39.2095C14.419 37.2551 14.645 35.0747 14.9373 32.9238C14.9373 32.9238 20.2857 32.0857 24.4762 33.7619C28.6666 35.4381 29.5047 38.3714 31.1809 38.3714H33.0691C34.7453 38.3714 35.5834 35.4381 39.7738 33.7619C43.9643 32.0857 49.3127 32.9238 49.3127 32.9238C49.605 35.0747 49.831 37.2551 49.831 39.2095C49.831 43.819 48.5738 45.9142 42.7072 46.7523C36.8405 47.5904 34.7453 41.3047 33.0691 41.3047H31.1809C29.5047 41.3047 27.4095 47.5904 21.5428 46.7523Z" fill="#FF3D00" fill-opacity="0.1"/>
<path d="M12 15C13.6762 16.6762 14.5143 19.1905 14.0952 22.9619C13.8539 25.1342 13.3344 28.0018 12.9373 30.9238M12.9373 30.9238C12.645 33.0747 12.419 35.2551 12.419 37.2095C12.419 41.819 13.6762 43.9142 19.5428 44.7523C25.4095 45.5904 27.5047 39.3047 29.1809 39.3047H31.0691C32.7453 39.3047 34.8405 45.5904 40.7072 44.7523C46.5738 43.9142 47.831 41.819 47.831 37.2095C47.831 35.2551 47.605 33.0747 47.3127 30.9238M12.9373 30.9238C12.9373 30.9238 18.2857 30.0857 22.4762 31.7619C26.6666 33.4381 27.5047 36.3714 29.1809 36.3714C29.8103 36.3714 30.4397 36.3714 31.0691 36.3714C32.7453 36.3714 33.5834 33.4381 37.7738 31.7619C41.9643 30.0857 47.3127 30.9238 47.3127 30.9238M48.25 15C46.5738 16.6762 45.7357 19.1905 46.1548 22.9619C46.3961 25.1342 46.9156 28.0018 47.3127 30.9238" stroke="#FF3D00" stroke-linecap="round" stroke-linejoin="round"/>
</svg>
