<svg width="60" height="60" viewBox="0 0 60 60" fill="none" xmlns="http://www.w3.org/2000/svg">
<path fill-rule="evenodd" clip-rule="evenodd" d="M42.9038 45.0192L13.0192 44.2115C13.0192 44.2115 11.9927 41.9175 11.4035 39.3654C11.3743 39.2392 11.3463 39.1206 11.3194 39.0073C11.1278 38.1976 11 37.6575 11 36.5385C11 34.7383 11.4642 32.8719 12.0164 31.2885C12.0164 31.2885 12.6154 33.7115 18.6727 32.9038C24.73 32.0962 27.1535 30.4808 27.5573 27.25C29.3921 26.1673 30.5733 25.9438 33.5407 28.8654C33.8759 29.3648 34.2479 29.863 34.6517 30.3214C34.9615 30.673 35.2899 31.0012 35.6346 31.2885C35.9837 31.5794 36.3831 31.887 36.811 32.2006C37.5606 32.7499 38.3978 33.3172 39.2058 33.8442C40.1279 34.4457 41.0119 34.9946 41.6843 35.4042C42.4212 35.8531 42.9038 36.1346 42.9038 36.1346C42.9038 36.1346 53 38.1538 53 40.5769C53 43 53 43.4038 51.3846 44.2115C49.7692 45.0192 42.9038 45.0192 42.9038 45.0192Z" fill="#FF3D00" fill-opacity="0.1"/>
<path d="M11.0192 42.2115L40.9038 43.0192C40.9038 43.0192 47.7692 43.0192 49.3846 42.2115C51 41.4038 51 41 51 38.5769C50.3538 39.5462 48.5769 39.7885 47.7692 39.7885C41.8462 39.7885 22.7308 41 17.4804 38.1731C10.9377 34.6504 10.0765 37.9556 9.40345 37.3654C9.99273 39.9175 11.0192 42.2115 11.0192 42.2115Z" fill="#FF3D00" fill-opacity="0.3"/>
<path d="M25.5573 25.25C25.5573 25.25 18.6923 28.0769 16.2692 27.6731C13.8462 27.2692 11.8269 25.25 11.8269 25.25C11.8269 25.25 10.8269 26.9644 10.0164 29.2885C10.0164 29.2885 10.6154 31.7115 16.6727 30.9038C22.73 30.0962 25.1535 28.4808 25.5573 25.25Z" fill="#FF3D00" fill-opacity="0.3"/>
<path d="M51 38.5769C51 36.1538 40.9038 34.1346 40.9038 34.1346C40.9038 34.1346 36.0577 31.3077 33.6346 29.2885C32.8404 28.6266 32.1329 27.7478 31.5407 26.8654M51 38.5769C51 41 51 41.4038 49.3846 42.2115C47.7692 43.0192 40.9038 43.0192 40.9038 43.0192L11.0192 42.2115C11.0192 42.2115 9.99273 39.9175 9.40345 37.3654M51 38.5769C50.3538 39.5462 48.5769 39.7885 47.7692 39.7885C41.8462 39.7885 22.7308 41 17.4804 38.1731C10.9377 34.6504 10.0765 37.9556 9.40345 37.3654M25.5573 25.25C25.5573 25.25 21.5192 24.4423 22.7308 22.8269C23.9423 21.2115 28.3846 20 28.3846 20L29.5962 23.2308C29.5962 23.2308 30.3261 25.0557 31.5407 26.8654M25.5573 25.25C25.5573 25.25 18.6923 28.0769 16.2692 27.6731C13.8462 27.2692 11.8269 25.25 11.8269 25.25C11.8269 25.25 10.8269 26.9644 10.0164 29.2885M25.5573 25.25C25.1535 28.4808 22.73 30.0962 16.6727 30.9038C10.6154 31.7115 10.0164 29.2885 10.0164 29.2885M25.5573 25.25C27.3921 24.1673 28.5733 23.9438 31.5407 26.8654M10.0164 29.2885C9.4642 30.8719 9 32.7383 9 34.5385C9 35.814 9.16609 36.3374 9.40345 37.3654M38.4808 34.6078L40.5693 32.5192M36.0577 32.9924L38.1462 30.9038M33.6346 31.377L35.7231 29.2885M31.2115 29.7616L33.3001 27.6731" stroke="#FF3D00" stroke-linecap="round" stroke-linejoin="round"/>
</svg>
