<svg width="60" height="60" viewBox="0 0 60 60" fill="none" xmlns="http://www.w3.org/2000/svg">
<path fill-rule="evenodd" clip-rule="evenodd" d="M28.9914 18.873C21.9185 21.3331 17.5877 21.1793 16.3064 20.7949V30.0206C16.3064 30.0206 14 33.4801 14 36.1709V40.3992V44.9339H22.4567V44.012H28.8382V44.9339H43.2139C48.5 44.9339 50.133 42.6276 50.133 42.6276V40.7836C52.8068 35.436 42.719 35.5715 40.1388 35.7865C40.1388 35.7865 37.9467 35.5872 35.4278 34.3277C34.5292 33.8784 33.5891 33.2942 32.692 32.536C32.6113 32.4677 32.5309 32.3981 32.4509 32.327C31.4361 31.4249 30.7189 30.5228 30.2121 29.6983C28.9914 27.7122 28.9914 26.1767 28.9914 26.1767V26.0067V22.6422V18.873Z" fill="#FF3D00" fill-opacity="0.1"/>
<path d="M25.4538 39.5524C18.5347 38.7836 12 38.3992 12 38.3992V42.9339H20.4567V42.012H26.8382V42.9339H41.2139C46.5 42.9339 48.133 40.6276 48.133 40.6276V38.7836C47.7486 39.5524 46.2111 39.9368 44.2891 39.9368C36.6317 39.9368 32.3729 40.3212 25.4538 39.5524Z" fill="#FF3D00" fill-opacity="0.3"/>
<path d="M12 38.3992V34.1709C12 31.4801 14.3064 28.0206 14.3064 28.0206V18.7949M12 38.3992C12 38.3992 18.5347 38.7836 25.4538 39.5524C32.3729 40.3212 36.6317 39.9368 44.2891 39.9368C46.2111 39.9368 47.7486 39.5524 48.133 38.7836M12 38.3992V42.9339H20.4567V42.012H26.8382V42.9339M38.1388 33.7865C38.1388 33.7865 33.9105 33.4021 30.4509 30.327C26.9914 27.2518 26.9914 24.1767 26.9914 24.1767V16.873M38.1388 33.7865C40.719 33.5715 50.8068 33.436 48.133 38.7836M38.1388 33.7865C37.3765 34.0724 36.0474 34.4432 35.416 35.4999M48.133 38.7836V40.6276C48.133 40.6276 46.5 42.9339 41.2139 42.9339M41.2139 42.9339C35.9279 42.9339 26.8382 42.9339 26.8382 42.9339M41.2139 42.9339H26.8382M14.3064 18.7949V16.4888C14.3064 16.4888 21.2255 16.1042 24.3006 14.951C27.3758 13.7977 26.9914 15.72 26.9914 15.72V16.873M14.3064 18.7949C15.5877 19.1793 19.9185 19.3331 26.9914 16.873M24.9325 20.9854L28.0286 20.4694M24.7868 24.7416L27.9409 23.6902M26.8707 28.5032L29.3961 26.9879M29.6821 31.5459L31.67 29.558M32.4936 33.8847L34.0089 31.3592" stroke="#FF3D00" stroke-linecap="round" stroke-linejoin="round"/>
</svg>
