<svg width="60" height="60" viewBox="0 0 60 60" fill="none" xmlns="http://www.w3.org/2000/svg">
<path d="M21.9713 13.7315C14.4195 14.9901 14 22.5418 14 25.059C14 27.5762 16.9368 36.3867 17.3563 38.4843C17.7759 40.582 18.6149 45.6166 19.0345 47.2947C19.454 48.9728 21.5517 51.4901 25.7471 50.651C29.9425 49.8118 30.3621 46.8752 30.3621 45.6166V19.6051C30.3621 19.6051 29.523 12.4728 21.9713 13.7315Z" fill="#FF3D00" fill-opacity="0.1"/>
<path d="M42.5287 13.7315C50.0805 14.9901 50.5 22.5418 50.5 25.059C50.5 27.5762 47.5632 36.3867 47.1437 38.4843C46.7241 40.582 45.8851 45.6166 45.4655 47.2947C45.046 48.9728 42.9483 51.4901 38.7529 50.651C34.5575 49.8118 34.1379 46.8752 34.1379 45.6166V19.6051C34.1379 19.6051 34.977 12.4728 42.5287 13.7315Z" fill="#FF3D00" fill-opacity="0.1"/>
<path d="M18.9022 34.3866C18.2796 34.1264 17.0345 32.2011 17.0345 26.5812C17.0345 20.9613 19.5248 18.2555 20.77 17.605C22.0151 18.3856 24.6549 21.0394 25.2525 25.4104C25.8502 29.7814 24.7545 32.4353 24.1319 33.2158M41.5978 34.3866C42.2204 34.1264 43.4655 32.2011 43.4655 26.5812C43.4655 20.9613 40.9752 18.2555 39.73 17.605C38.4849 18.3856 35.8451 21.0394 35.2475 25.4104C34.6498 29.7814 35.7455 32.4353 36.3681 33.2158M19.9713 11.7315C12.4195 12.9901 12 20.5418 12 23.059C12 25.5762 14.9368 34.3867 15.3563 36.4843C15.7759 38.582 16.6149 43.6166 17.0345 45.2947C17.454 46.9728 19.5517 49.4901 23.7471 48.651C27.9425 47.8118 28.3621 44.8752 28.3621 43.6166V17.6051C28.3621 17.6051 27.523 10.4728 19.9713 11.7315ZM40.5287 11.7315C48.0805 12.9901 48.5 20.5418 48.5 23.059C48.5 25.5762 45.5632 34.3867 45.1437 36.4843C44.7241 38.582 43.8851 43.6166 43.4655 45.2947C43.046 46.9728 40.9483 49.4901 36.7529 48.651C32.5575 47.8118 32.1379 44.8752 32.1379 43.6166V17.6051C32.1379 17.6051 32.977 10.4728 40.5287 11.7315Z" stroke="#FF3D00" stroke-linecap="round" stroke-linejoin="round"/>
</svg>
