<svg width="60" height="60" viewBox="0 0 60 60" fill="none" xmlns="http://www.w3.org/2000/svg">
<path d="M52 38.331L51.0244 42.2335H12.9756L12 38.331H16.2662L13.4634 33.5137C12.3252 31.5423 10.8937 27.1116 14.2733 25.1604C17.6529 23.2092 20.7742 26.6642 21.9124 28.6357L27.2804 38.331H36.878C36.878 26.6237 36.878 27.5993 42.7317 27.5993C47.4146 27.5993 50.8618 34.7538 52 38.331Z" fill="#FF3D00" fill-opacity="0.1"/>
<path d="M15.6879 29.0747L20 36.331H25.2804L19.9124 26.6357C16.6285 22.899 13.6554 25.5543 15.6879 29.0747Z" fill="#FF3D00" fill-opacity="0.3"/>
<path d="M50 36.331L49.0244 40.2335H10.9756L10 36.331H34.878M50 36.331C48.8618 32.7538 45.4146 25.5993 40.7317 25.5993C34.878 25.5993 34.878 24.6237 34.878 36.331M50 36.331H34.878M20 36.331L15.6879 29.0747C13.6554 25.5543 16.6285 22.899 19.9124 26.6357M20 36.331H25.2804L19.9124 26.6357M20 36.331H14.2662L11.4634 31.5137C10.3252 29.5423 8.89368 25.1116 12.2733 23.1604C15.6529 21.2092 18.7742 24.6642 19.9124 26.6357" stroke="#FF3D00" stroke-linecap="round" stroke-linejoin="round"/>
</svg>
