<svg width="60" height="60" viewBox="0 0 60 60" fill="none" xmlns="http://www.w3.org/2000/svg">
<path d="M41.4231 40.444L32.9418 37.6169C30.5186 36.8092 30.5185 32.3666 30.5185 32.3666L30.5187 20.6542H18.4025L18.402 15L18.402 34.7898C18.402 34.7898 21.2296 35.1937 23.249 38.0208C25.2684 40.8479 24.4606 45.2905 24.4606 45.2905L24.4604 45.5391L37.7884 49.3836V49.3292C38.1115 43.8366 40.3461 41.1172 41.4231 40.444Z" fill="#FF3D00" fill-opacity="0.1"/>
<path d="M36.9999 47.7331C36.9999 47.7331 43.0582 49.7525 44.2698 44.906M36.9999 47.7331L22.4604 43.5391M36.9999 47.7331L35.7884 47.3836V47.3292C36.1115 41.8366 38.3461 39.1172 39.4231 38.444M44.2698 44.906C45.4814 40.0595 39.4231 38.444 39.4231 38.444M44.2698 44.906C45.4783 40.0718 39.4537 38.4522 39.4231 38.444M39.4231 38.444L30.9418 35.6169C28.5186 34.8092 28.5185 30.3666 28.5185 30.3666V13M28.5185 13H16.402M28.5185 13L28.5187 18.6542H16.4025L16.402 13M16.402 13L16.402 32.7898M16.402 32.7898C16.4021 34.0014 14.3828 36.4247 15.1908 39.6557M16.402 32.7898C16.4021 33.1841 16.1882 33.7068 15.9275 34.3439C15.3872 35.6644 14.6458 37.4762 15.1908 39.6557M16.402 32.7898C16.402 32.7898 19.2296 33.1937 21.249 36.0208C23.2684 38.8479 22.4606 43.2905 22.4606 43.2905L22.4604 43.5391M15.1908 39.6557C15.9988 42.8866 21.2486 43.2905 22.4604 43.5391M15.1908 39.6557C15.9019 42.4991 20.0531 43.153 21.8647 43.4383C22.1116 43.4772 22.3151 43.5093 22.4604 43.5391" stroke="#FF3D00" stroke-linecap="round" stroke-linejoin="round"/>
</svg>
