<svg width="60" height="60" viewBox="0 0 60 60" fill="none" xmlns="http://www.w3.org/2000/svg">
<path d="M34.1334 13C23.5472 13 23.1552 23.1941 23.1552 23.1941V31.8199C23.1552 31.8199 20.0185 28.6832 18.0581 28.2911C16.0977 27.8991 13.3531 29.8595 14.1373 32.9961C14.9215 36.1327 23.5475 40.8377 24.7235 44.3664C25.122 45.5624 25.2505 46.6232 25.3224 47.5031H43.5434V42.7981C43.5434 42.7981 46.68 32.9961 46.68 27.1149C46.68 21.2337 44.7196 13 34.1334 13Z" fill="#FF3D00" fill-opacity="0.1"/>
<path d="M23.3224 45.5031C23.2505 44.6232 23.122 43.5624 22.7235 42.3664C21.5475 38.8377 12.9215 34.1327 12.1373 30.9961C11.3531 27.8595 14.0977 25.8991 16.0581 26.2911C18.0185 26.6832 21.1552 29.8199 21.1552 29.8199V21.1941C21.1552 21.1941 21.5472 11 32.1334 11C42.7196 11 44.68 19.2337 44.68 25.1149C44.68 30.9961 41.5434 40.7981 41.5434 40.7981V45.5031M23.3224 45.5031C23.4627 47.2195 23.388 48.2476 24.6839 48.2476C26.6441 48.2476 37.6223 48.2476 39.583 48.2476C41.5436 48.2476 41.5434 46.2872 41.5434 46.2872V45.5031M23.3224 45.5031H41.5434" stroke="#FF3D00" stroke-linecap="round" stroke-linejoin="round"/>
</svg>
