<svg width="60" height="60" viewBox="0 0 60 60" fill="none" xmlns="http://www.w3.org/2000/svg">
<path d="M17.8286 44.1682H46.1714V35.0254C46.1714 25.8825 32 18.5682 32 18.5682C32 18.5682 17.8286 25.8825 17.8286 35.0254V44.1682Z" fill="#FF3D00" fill-opacity="0.1"/>
<path d="M14 42.1682H46V48.5682H14V42.1682Z" stroke="#FF3D00" stroke-linecap="round" stroke-linejoin="round"/>
<path d="M15.8286 33.0254C15.8286 23.8825 30 16.5682 30 16.5682C30 16.5682 44.1714 23.8825 44.1714 33.0254C44.1714 42.1682 44.1714 42.1682 44.1714 42.1682H15.8286C15.8286 42.1682 15.8286 42.1682 15.8286 33.0254Z" stroke="#FF3D00" stroke-linecap="round" stroke-linejoin="round"/>
<path d="M33.2 13.8254C33.2 15.3402 31.972 16.5682 30.4571 16.5682C28.9423 16.5682 27.7143 15.3402 27.7143 13.8254C27.7143 12.3105 28.9423 11.0825 30.4571 11.0825C31.972 11.0825 33.2 12.3105 33.2 13.8254Z" stroke="#FF3D00" stroke-linecap="round" stroke-linejoin="round"/>
</svg>
