<svg width="60" height="60" viewBox="0 0 60 60" fill="none" xmlns="http://www.w3.org/2000/svg">
<path d="M42.9693 17.0825L32.0003 17.9087L32.1264 19.5823L33.0679 32.0823L34.0219 44.7487L44.9908 43.9225L44.0426 31.3335L43.0993 18.8084L42.9693 17.0825Z" fill="#FF3D00" fill-opacity="0.1"/>
<path d="M50 30.0823V21.0824C50 18.4139 49.0558 17.3256 46.5 18.0295C45.5754 18.2841 44.5068 18.5484 43.1754 18.7852L43.0993 18.8084L44.0426 31.3335C44.0626 31.3335 44.0817 31.3309 44.1016 31.3281C48.1328 30.7613 50 30.0823 50 30.0823Z" fill="#FF3D00" fill-opacity="0.1"/>
<path d="M14 21.0824V30.0823C14 30.0823 15.9174 30.7796 20.061 31.3507C22.7605 31.7228 26.4049 32.0413 31.0795 32.0787C31.382 32.0811 31.6888 32.0823 32 32.0823H33.0679L32.1264 19.5823C27.5067 19.5823 22.9847 19.2039 18.5 18.0825C15.5749 17.3511 14 17.9977 14 21.0824Z" fill="#FF3D00" fill-opacity="0.1"/>
<path d="M31.0312 32.4207L20.061 31.6121L19.3675 41.0203L30.3378 41.8289L31.0312 32.4207Z" fill="#FF3D00" fill-opacity="0.1"/>
<path d="M33.0187 42.6738L33.3191 46.6625M41.9933 41.9979L42.2937 45.9866M39.0018 42.2232L39.3022 46.2119M36.0102 42.4485L36.3107 46.4372M18.061 29.6121L29.0312 30.4207M18.061 29.6121L17.3675 39.0203L28.3378 39.8289L29.0312 30.4207M18.061 29.6121V29.3507M29.0312 30.4207L29.0795 30.0787M18.3614 39.0936L18.0674 43.0828M27.3371 39.7552L27.0431 43.7444M24.3452 39.5347L24.0512 43.5239M21.3533 39.3142L21.0593 43.3033M30.1264 17.5823L30.0003 15.9087L40.9693 15.0825L41.0993 16.8084M30.1264 17.5823C25.5067 17.5823 20.9847 17.2039 16.5 16.0825C13.5749 15.3511 12 15.9977 12 19.0824V28.0823C12 28.0823 13.9174 28.7796 18.061 29.3507M30.1264 17.5823L31.0679 30.0823M31.0679 30.0823L32.0219 42.7487L42.9908 41.9225L42.0426 29.3335M31.0679 30.0823C31.0679 30.0823 30.3543 30.0823 30 30.0823C29.6888 30.0823 29.382 30.0811 29.0795 30.0787M42.0426 29.3335C42.0626 29.3335 42.0817 29.3309 42.1016 29.3281C46.1328 28.7613 48 28.0823 48 28.0823V19.0824C48 16.4139 47.0558 15.3256 44.5 16.0295C43.5754 16.2841 42.5068 16.5484 41.1754 16.7852L41.0993 16.8084M42.0426 29.3335L41.0993 16.8084M18.061 29.3507C20.7605 29.7228 24.4049 30.0413 29.0795 30.0787" stroke="#FF3D00" stroke-linecap="round" stroke-linejoin="round"/>
</svg>
