<svg width="60" height="60" viewBox="0 0 60 60" fill="none" xmlns="http://www.w3.org/2000/svg">
<path d="M11.2063 34.4111C10.3327 36.1582 12.5166 34.8479 12.5166 36.1582C12.5166 37.4686 12.5168 45.7673 20.3788 45.7673C28.2408 45.7673 29.1143 40.9628 29.1143 34.4111H11.2063Z" fill="#FF3D00" fill-opacity="0.1"/>
<path d="M50.9534 36.1582C50.9534 34.8479 53.1373 36.1582 52.2637 34.4111H34.3557C34.3557 40.9628 35.2292 45.7673 43.0912 45.7673C50.9532 45.7673 50.9534 37.4686 50.9534 36.1582Z" fill="#FF3D00" fill-opacity="0.1"/>
<path d="M9.20626 32.4111C8.3327 34.1582 10.5166 32.8479 10.5166 34.1582C10.5166 35.4686 10.5168 43.7673 18.3788 43.7673C26.2408 43.7673 27.1143 38.9628 27.1143 32.4111H9.20626Z" fill="#FF3D00" fill-opacity="0.3"/>
<path d="M48.9534 34.1582C48.9534 32.8479 51.1373 34.1582 50.2637 32.4111H32.3557C32.3557 38.9628 33.2292 43.7673 41.0912 43.7673C48.9532 43.7673 48.9534 35.4686 48.9534 34.1582Z" fill="#FF3D00" fill-opacity="0.3"/>
<path d="M19.2521 19.7445C18.6698 18.7254 17.3303 16.7744 16.6315 17.1239C15.7579 17.5606 10.0798 30.664 9.20626 32.4111M9.20626 32.4111C8.3327 34.1582 10.5166 32.8479 10.5166 34.1582C10.5166 35.4686 10.5168 43.7673 18.3788 43.7673C26.2408 43.7673 27.1143 38.9628 27.1143 32.4111M9.20626 32.4111H27.1143M27.1143 32.4111H32.3557M40.2179 19.7445C40.8002 18.7254 42.1397 16.7744 42.8385 17.1239C43.7121 17.5606 49.3902 30.664 50.2637 32.4111M50.2637 32.4111C51.1373 34.1582 48.9534 32.8479 48.9534 34.1582C48.9534 35.4686 48.9532 43.7673 41.0912 43.7673C33.2292 43.7673 32.3557 38.9628 32.3557 32.4111M50.2637 32.4111H32.3557" stroke="#FF3D00" stroke-linecap="round" stroke-linejoin="round"/>
</svg>
