<svg width="60" height="60" viewBox="0 0 60 60" fill="none" xmlns="http://www.w3.org/2000/svg">
<path d="M44.8189 19.5517L47.1163 21.849C47.2738 22.0066 47.3933 22.1978 47.4303 22.4175C47.578 23.2959 47.6776 25.8259 44.8189 28.6845C42.6544 30.8491 40.8667 31.1291 39.8005 31.0176C39.1456 30.9492 38.4037 31.0407 37.938 31.5064L20.972 48.4724C20.4116 49.0328 19.5029 49.0328 18.9425 48.4724L17.4203 46.9502C16.8599 46.3898 16.8599 45.4812 17.4203 44.9207L42.7894 19.5517C43.3498 18.9912 44.2585 18.9912 44.8189 19.5517Z" fill="#FF3D00" fill-opacity="0.1"/>
<path d="M40.282 17.5517L36.7303 14M38.2525 19.5812L34.7008 16.0295M36.223 21.6107L32.6713 18.059M34.1934 23.6402L30.6418 20.0886M42.8189 26.6845C45.6776 23.8259 45.578 21.2959 45.4303 20.4175C45.3933 20.1978 45.2738 20.0066 45.1163 19.849L42.8189 17.5517C42.2585 16.9912 41.3498 16.9912 40.7894 17.5517L15.4203 42.9207C14.8599 43.4812 14.8599 44.3898 15.4203 44.9502L16.9425 46.4724C17.5029 47.0328 18.4116 47.0328 18.972 46.4724L35.938 29.5064C36.4037 29.0407 37.1456 28.9492 37.8005 29.0176C38.8667 29.1291 40.6544 28.8491 42.8189 26.6845Z" stroke="#FF3D00" stroke-linecap="round" stroke-linejoin="round"/>
</svg>
