<svg width="60" height="60" viewBox="0 0 60 60" fill="none" xmlns="http://www.w3.org/2000/svg">
<path d="M45.1625 14.3417L41.9098 17.5943L45.8696 21.5541L49.1223 18.3015L45.1625 14.3417Z" fill="#FF3D00" fill-opacity="0.1"/>
<path fill-rule="evenodd" clip-rule="evenodd" d="M36.1115 18.3015L45.1625 27.3524L28.7576 48.2828L15.1811 34.7063L36.1115 18.3015Z" fill="#FF3D00" fill-opacity="0.1"/>
<path d="M43.1625 12.3417L39.9098 15.5943L43.8696 19.5541L47.1223 16.3015L43.1625 12.3417Z" fill="#FF3D00" fill-opacity="0.3"/>
<path d="M39.9098 15.5943L43.1625 12.3417L47.1223 16.3015L43.8696 19.5541M39.9098 15.5943L34.1115 16.3015M39.9098 15.5943L43.8696 19.5541M34.1115 16.3015L13.1811 32.7063M34.1115 16.3015L43.1625 25.3524M13.1811 32.7063L9.78702 35.5348L23.9292 49.6769L26.7576 46.2828M13.1811 32.7063L26.7576 46.2828M26.7576 46.2828L43.1625 25.3524M43.1625 25.3524L43.8696 19.5541" stroke="#FF3D00" stroke-linecap="round" stroke-linejoin="round"/>
</svg>
