<svg width="60" height="60" viewBox="0 0 60 60" fill="none" xmlns="http://www.w3.org/2000/svg">
<path d="M37.5802 18.4639H21.0123C19.3487 18.4639 18 19.8125 18 21.4762V27.22L29.4846 30.1367L40.5926 27.3156V21.4762C40.5926 19.8125 39.2439 18.4639 37.5802 18.4639Z" fill="#FF3D00" fill-opacity="0.1"/>
<path d="M21.0123 47.0812H37.5802C39.2439 47.0812 40.5926 45.7325 40.5926 44.0688V27.3156L29.4846 30.1367L18 27.22V44.0688C18 45.7325 19.3487 47.0812 21.0123 47.0812Z" fill="#FF3D00" fill-opacity="0.1"/>
<path d="M46.5 44.7046C39.7222 38.6799 44.6173 35.6676 44.6173 30.396C44.6173 26.1787 41.1029 25.1244 39.3457 25.1244L27.4846 28.1367L16 25.22M19.0123 45.0812H35.5802C37.2439 45.0812 38.5926 43.7325 38.5926 42.0688V19.4762C38.5926 17.8125 37.2439 16.4639 35.5802 16.4639H19.0123C17.3487 16.4639 16 17.8125 16 19.4762V42.0688C16 43.7325 17.3487 45.0812 19.0123 45.0812Z" stroke="#FF3D00" stroke-linecap="round" stroke-linejoin="round"/>
</svg>
