<svg width="60" height="60" viewBox="0 0 60 60" fill="none" xmlns="http://www.w3.org/2000/svg">
<path d="M23.0816 20H40.9184C46.4863 20 51 24.5137 51 30.0816V35.5102C51 41.0781 46.4863 45.5918 40.9184 45.5918H23.0816C17.5137 45.5918 13 41.0781 13 35.5102V30.0816C13 24.5137 17.5137 20 23.0816 20Z" fill="#FF3D00" fill-opacity="0.1"/>
<path d="M23.9898 36.6122C20.6705 36.6122 17.9796 33.9214 17.9796 30.602V30.0204C17.9796 26.3798 20.9309 23.4286 24.5714 23.4286H35.4286C39.0691 23.4286 42.0204 26.3798 42.0204 30.0204V30.602C42.0204 33.9214 39.3295 36.6122 36.0102 36.6122M21.0816 43.5918H38.9184C44.4863 43.5918 49 39.0781 49 33.5102V28.0816C49 22.5137 44.4863 18 38.9184 18H21.0816C15.5137 18 11 22.5137 11 28.0816V33.5102C11 39.0781 15.5137 43.5918 21.0816 43.5918Z" stroke="#FF3D00" stroke-linecap="round" stroke-linejoin="round"/>
</svg>
