<svg width="60" height="60" viewBox="0 0 60 60" fill="none" xmlns="http://www.w3.org/2000/svg">
<path fill-rule="evenodd" clip-rule="evenodd" d="M28.5294 20.0668L25 28.2286H40L36.4706 20.0668V14.5521V11.4639H28.5294V14.5521V20.0668ZM25 46.3168L25 52.0521H40V46.3168H25Z" fill="#FF3D00" fill-opacity="0.1"/>
<path d="M34.4706 9.46387H26.5294V12.5521H34.4706V9.46387Z" fill="#FF3D00" fill-opacity="0.3"/>
<path d="M26.5294 18.0668L23 26.2286M26.5294 18.0668H34.4706M26.5294 18.0668V12.5521M23 26.2286V44.3168M23 26.2286H38M23 44.3168L23 50.0521H38V44.3168M23 44.3168H38M38 44.3168V26.2286M38 26.2286L34.4706 18.0668M34.4706 18.0668V12.5521M26.5294 12.5521V9.46387H34.4706V12.5521M26.5294 12.5521H34.4706" stroke="#FF3D00" stroke-linecap="round" stroke-linejoin="round"/>
</svg>
