<svg width="60" height="60" viewBox="0 0 60 60" fill="none" xmlns="http://www.w3.org/2000/svg">
<path d="M24.2857 49.8926C24.2857 50.9971 25.1811 51.8926 26.2857 51.8926L37.7143 51.8926C38.8189 51.8926 39.7143 50.9971 39.7143 49.8926L39.7143 44.3926L24.2857 44.3926L24.2857 49.8926Z" fill="#FF3D00" fill-opacity="0.1"/>
<path d="M39.7143 44.3926C39.7143 44.3926 42.4928 36.3556 43.1429 30.464C43.7486 24.9742 44 15.464 44 15.464L20 15.464C20 15.464 20.2514 24.9742 20.8571 30.464C21.5072 36.3556 24.2857 44.3926 24.2857 44.3926L39.7143 44.3926Z" fill="#FF3D00" fill-opacity="0.1"/>
<path d="M22.2857 47.8926C22.2857 48.9971 23.1811 49.8926 24.2857 49.8926L35.7143 49.8926C36.8189 49.8926 37.7143 48.9971 37.7143 47.8926L37.7143 42.3926L22.2857 42.3926L22.2857 47.8926Z" fill="#FF3D00" fill-opacity="0.3"/>
<path d="M37.7143 42.3926C37.7143 42.3926 40.4928 34.3556 41.1429 28.464C41.7486 22.9742 42 13.464 42 13.464M37.7143 42.3926L22.2857 42.3926M37.7143 42.3926L37.7143 47.8926C37.7143 48.9971 36.8189 49.8926 35.7143 49.8926L24.2857 49.8926C23.1811 49.8926 22.2857 48.9971 22.2857 47.8926L22.2857 42.3926M42 13.464L42 10.464L18 10.464L18 13.464M42 13.464L18 13.464M18 13.464C18 13.464 18.2514 22.9742 18.8571 28.464C19.5072 34.3556 22.2857 42.3926 22.2857 42.3926" stroke="#FF3D00" stroke-linecap="round" stroke-linejoin="round"/>
</svg>
