<svg width="60" height="60" viewBox="0 0 60 60" fill="none" xmlns="http://www.w3.org/2000/svg">
<path d="M43.875 15.917C41.32 15.917 40.7736 18.0511 40.6568 18.9639H47.0932C46.9764 18.0511 46.43 15.917 43.875 15.917Z" fill="#FF3D00" fill-opacity="0.1"/>
<path d="M40.625 44.9639V19.3701C40.625 19.3701 40.625 19.2122 40.6568 18.9639C40.7736 18.0511 41.32 15.917 43.875 15.917C46.43 15.917 46.9764 18.0511 47.0932 18.9639H47.125V18.1514C47.125 15.0102 44.5786 12.4639 41.4375 12.4639H21.9375C18.7964 12.4639 16.25 15.0102 16.25 18.1514V18.9639V44.9639H21.125H40.625Z" fill="#FF3D00" fill-opacity="0.1"/>
<path d="M40.625 19.3701V44.9639H21.125V51.4639H47.125V19.3701C47.125 19.3701 47.125 19.2122 47.0932 18.9639H40.6568C40.625 19.2122 40.625 19.3701 40.625 19.3701Z" fill="#FF3D00" fill-opacity="0.1"/>
<path d="M38.625 17.3701V42.9639H19.125V49.4639H45.125V17.3701C45.125 17.3701 45.125 17.2122 45.0932 16.9639H38.6568C38.625 17.2122 38.625 17.3701 38.625 17.3701Z" fill="#FF3D00" fill-opacity="0.3"/>
<path d="M41.875 13.917C39.32 13.917 38.7736 16.0511 38.6568 16.9639H45.0932C44.9764 16.0511 44.43 13.917 41.875 13.917Z" fill="#FF3D00" fill-opacity="0.3"/>
<path d="M45.125 17.3701V16.1514C45.125 13.0102 42.5786 10.4639 39.4375 10.4639H19.9375C16.7964 10.4639 14.25 13.0102 14.25 16.1514V16.9639M45.125 17.3701V49.4639H19.125V42.9639M45.125 17.3701C45.125 17.3701 45.125 17.2122 45.0932 16.9639M19.125 42.9639H38.625V17.3701C38.625 17.3701 38.625 17.2122 38.6568 16.9639M19.125 42.9639H14.25V16.9639M14.25 16.9639H11M38.6568 16.9639C38.7736 16.0511 39.32 13.917 41.875 13.917C44.43 13.917 44.9764 16.0511 45.0932 16.9639M38.6568 16.9639H45.0932M50 16.9639H45.0932" stroke="#FF3D00" stroke-linecap="round" stroke-linejoin="round"/>
</svg>
