<svg width="60" height="60" viewBox="0 0 60 60" fill="none" xmlns="http://www.w3.org/2000/svg">
<path d="M35 12.4639H29V16.7496H32H35V12.4639Z" fill="#FF3D00" fill-opacity="0.1"/>
<path d="M41 23.6067L37.8856 19.6202C36.4701 17.8085 34.2991 16.7496 32 16.7496C29.7009 16.7496 27.5299 17.8085 26.1144 19.6202L23 23.6067H41Z" fill="#FF3D00" fill-opacity="0.1"/>
<path d="M41 50.1782V23.6067H23V50.1782C23 50.6515 23.3838 51.0353 23.8571 51.0353H40.1429C40.6162 51.0353 41 50.6515 41 50.1782Z" fill="#FF3D00" fill-opacity="0.1"/>
<path d="M33 10.4639H27V14.7496H30H33V10.4639Z" fill="#FF3D00" fill-opacity="0.3"/>
<path d="M21 21.6067V48.1782C21 48.6515 21.3838 49.0353 21.8571 49.0353H38.1429C38.6162 49.0353 39 48.6515 39 48.1782V21.6067M21 21.6067L24.1144 17.6202C25.5299 15.8085 27.7009 14.7496 30 14.7496M21 21.6067H39M39 21.6067L35.8856 17.6202C34.4701 15.8085 32.2991 14.7496 30 14.7496M30 14.7496H27M30 14.7496H33M33 14.7496V10.4639H27V14.7496M33 14.7496H27" stroke="#FF3D00" stroke-linecap="round" stroke-linejoin="round"/>
</svg>
