<svg width="60" height="60" viewBox="0 0 60 60" fill="none" xmlns="http://www.w3.org/2000/svg">
<path fill-rule="evenodd" clip-rule="evenodd" d="M21.9107 35.8215C15.8849 35.8215 11 30.9366 11 24.9107C11 18.8849 15.8849 14 21.9107 14C26.1201 14 42.4732 19.4554 42.4732 19.4554V30.3661C42.4732 30.3661 26.2416 35.8215 21.9107 35.8215ZM21.9107 29.9465C24.6919 29.9465 26.9464 27.6919 26.9464 24.9107C26.9464 22.1296 24.6919 19.875 21.9107 19.875C19.1296 19.875 16.875 22.1296 16.875 24.9107C16.875 27.6919 19.1296 29.9465 21.9107 29.9465Z" fill="#FF3D00" fill-opacity="0.1"/>
<path d="M26.9464 24.9107C26.9464 27.6919 24.6919 29.9465 21.9107 29.9465C19.1296 29.9465 16.875 27.6919 16.875 24.9107C16.875 22.1296 19.1296 19.875 21.9107 19.875C24.6919 19.875 26.9464 22.1296 26.9464 24.9107Z" fill="#FF3D00" fill-opacity="0.1"/>
<path d="M24.4326 35.585V47.9917C24.4326 47.9917 24.4282 50.9292 23.1692 50.9292C17.2942 50.9292 15.1947 46.3131 15.1948 41.2774V33.513C15.1948 33.513 16.4638 35.4023 19.8165 35.822C23.1692 36.2416 24.4326 35.585 24.4326 35.585Z" fill="#FF3D00" fill-opacity="0.1"/>
<path d="M24.9464 22.9107C24.9464 25.6919 22.6919 27.9465 19.9107 27.9465C17.1296 27.9465 14.875 25.6919 14.875 22.9107C14.875 20.1296 17.1296 17.875 19.9107 17.875C22.6919 17.875 24.9464 20.1296 24.9464 22.9107Z" fill="#FF3D00" fill-opacity="0.3"/>
<path d="M43.4321 18.8616C47.7254 17.1265 46.8859 20.4838 50.76 18.7485M43.4321 22.8472C47.7254 21.1121 46.8859 24.4694 50.76 22.734M43.4321 26.8328C47.7254 25.0977 46.8859 28.455 50.76 26.7196M24.9464 22.9107C24.9464 25.6919 22.6919 27.9465 19.9107 27.9465C17.1296 27.9465 14.875 25.6919 14.875 22.9107C14.875 20.1296 17.1296 17.875 19.9107 17.875C22.6919 17.875 24.9464 20.1296 24.9464 22.9107ZM19.9107 33.8215C13.8849 33.8215 9 28.9366 9 22.9107C9 16.8849 13.8849 12 19.9107 12C24.1201 12 40.4732 17.4554 40.4732 17.4554V28.3661C40.4732 28.3661 24.2416 33.8215 19.9107 33.8215ZM13.1948 31.513V39.2774C13.1947 44.3131 15.2942 48.9292 21.1692 48.9292C22.4282 48.9292 22.4326 45.9917 22.4326 45.9917V33.585C22.4326 33.585 21.1692 34.2416 17.8165 33.822C14.4638 33.4023 13.1948 31.513 13.1948 31.513Z" stroke="#FF3D00" stroke-linecap="round" stroke-linejoin="round"/>
</svg>
