<svg width="60" height="60" viewBox="0 0 60 60" fill="none" xmlns="http://www.w3.org/2000/svg">
<path d="M11.709 39.1174C8.19089 33.0239 10.2787 25.2322 16.3722 21.7141L25.0412 16.709C31.1348 13.1909 38.9265 15.2787 42.4446 21.3722C45.9627 27.4657 43.8749 35.2575 37.7814 38.7756L29.1124 43.7807C23.0188 47.2988 15.2271 45.211 11.709 39.1174Z" stroke="#FF3D00" stroke-linecap="round" stroke-linejoin="round"/>
<path d="M17.1745 34.7377C14.3775 30.3114 17.2888 25.7869 23.6771 24.6318L32.7654 22.9886C39.1536 21.8336 46.5997 24.4855 49.3967 28.9118C52.1937 33.3381 49.2824 37.8627 42.8941 39.0177L33.8058 40.6609C27.4176 41.8159 19.9715 39.164 17.1745 34.7377Z" stroke="#FF3D00" stroke-linecap="round" stroke-linejoin="round"/>
</svg>
