<svg width="60" height="60" viewBox="0 0 60 60" fill="none" xmlns="http://www.w3.org/2000/svg">
<path d="M14.8756 45.6811L13.724 44.5295C11.816 42.6214 11.816 39.5279 13.724 37.6198L37.9079 13.4359C39.816 11.5279 42.9095 11.5279 44.8176 13.4359L45.9692 14.5875C46.2872 14.9055 46.2872 15.4211 45.9692 15.7392L16.0272 45.6811C15.7092 45.9991 15.1936 45.9991 14.8756 45.6811Z" fill="#FF3D00" fill-opacity="0.1"/>
<path d="M15.1789 43.1053L22.6643 50.5908M17.4821 40.8021L24.9676 48.2876M19.7853 38.4989L27.2708 45.9843M22.0885 36.1956L29.574 43.6811M24.3918 33.8924L31.8773 41.3779M26.695 31.5892L34.1805 39.0747M28.9982 29.2859L36.4837 36.7714M31.3014 26.9827L38.7869 34.4682M33.6047 24.6795L41.0902 32.165M35.9079 22.3763L43.3934 29.8617M38.2111 20.073L45.6966 27.5585M40.5144 17.7698L47.9998 25.2553M42.8176 15.4666L50.3031 22.9521M43.9692 12.5875L42.8176 11.4359C40.9095 9.52787 37.816 9.52787 35.9079 11.4359L11.724 35.6198C9.81595 37.5279 9.81595 40.6214 11.724 42.5295L12.8756 43.6811C13.1936 43.9991 13.7092 43.9991 14.0272 43.6811L43.9692 13.7392C44.2872 13.4211 44.2872 12.9055 43.9692 12.5875Z" stroke="#FF3D00" stroke-linecap="round" stroke-linejoin="round"/>
</svg>
