<svg width="60" height="60" viewBox="0 0 60 60" fill="none" xmlns="http://www.w3.org/2000/svg">
<path d="M41.0476 32.1905H22.9524C22.9524 32.1905 23.3028 33.9346 23.8571 34.9048C24.6009 36.2063 26.5714 37.619 26.5714 37.619V40.3333C26.5714 41.8324 27.7867 43.0476 29.2857 43.0476H34.7143C36.2133 43.0476 37.4286 41.8324 37.4286 40.3333V37.619C37.4286 37.619 39.3991 36.2063 40.1429 34.9048C40.6972 33.9346 41.0476 32.1905 41.0476 32.1905Z" fill="#FF3D00" fill-opacity="0.1"/>
<path d="M34.7143 43.0476H29.2857H28.381V51.1905H35.619V43.0476H34.7143Z" fill="#FF3D00" fill-opacity="0.1"/>
<path d="M17.75 27.8929V32.1905H22.9524H41.0476H46.25V27.8929H17.75Z" fill="#FF3D00" fill-opacity="0.1"/>
<path d="M46.25 23.5952H17.75V27.8929H46.25V23.5952Z" fill="#FF3D00" fill-opacity="0.1"/>
<path d="M17.75 23.5952H46.25V19.2976H17.75V23.5952Z" fill="#FF3D00" fill-opacity="0.1"/>
<path d="M46.25 19.2976V15H17.75V19.2976H46.25Z" fill="#FF3D00" fill-opacity="0.1"/>
<path d="M39.0476 30.1905H20.9524C20.9524 30.1905 21.3028 31.9346 21.8571 32.9048C22.6009 34.2063 24.5714 35.619 24.5714 35.619V38.3333C24.5714 39.8324 25.7867 41.0476 27.2857 41.0476H32.7143C34.2133 41.0476 35.4286 39.8324 35.4286 38.3333V35.619C35.4286 35.619 37.3991 34.2063 38.1429 32.9048C38.6972 31.9346 39.0476 30.1905 39.0476 30.1905Z" fill="#FF3D00" fill-opacity="0.3"/>
<path d="M44.25 13H46.2857C47.7848 13 49 14.2152 49 15.7143V27.4762C49 28.9752 47.7848 30.1905 46.2857 30.1905H44.25M44.25 13V17.2976M44.25 13H15.75M44.25 30.1905V25.8929M44.25 30.1905H15.75M15.75 13H13.7143C12.2152 13 11 14.2152 11 15.7143V27.4762C11 28.9752 12.2152 30.1905 13.7143 30.1905H15.75M15.75 13V17.2976M15.75 30.1905V25.8929M15.75 21.5952H44.25M15.75 21.5952V17.2976M15.75 21.5952V25.8929M44.25 21.5952V17.2976M44.25 21.5952V25.8929M44.25 17.2976H15.75M15.75 25.8929H44.25M33.619 49.1905V41.0476H26.381V49.1905M20.9524 30.1905H39.0476C39.0476 30.1905 38.6972 31.9346 38.1429 32.9048C37.3991 34.2063 35.4286 35.619 35.4286 35.619V38.3333C35.4286 39.8324 34.2133 41.0476 32.7143 41.0476H27.2857C25.7867 41.0476 24.5714 39.8324 24.5714 38.3333V35.619C24.5714 35.619 22.6009 34.2063 21.8571 32.9048C21.3028 31.9346 20.9524 30.1905 20.9524 30.1905Z" stroke="#FF3D00" stroke-linecap="round" stroke-linejoin="round"/>
</svg>
