<svg width="60" height="60" viewBox="0 0 60 60" fill="none" xmlns="http://www.w3.org/2000/svg">
<path fill-rule="evenodd" clip-rule="evenodd" d="M16.0559 44.1765H47.3441V21H16.0559V44.1765ZM40.0225 26.7941H23.3775C22.2139 26.7941 21.2706 27.7374 21.2706 28.9011V36.2754C21.2706 37.439 22.2139 38.3824 23.3775 38.3824H40.0225C41.1861 38.3824 42.1294 37.439 42.1294 36.2754V28.9011C42.1294 27.7374 41.1861 26.7941 40.0225 26.7941Z" fill="#FF3D00" fill-opacity="0.1"/>
<path d="M23.3775 26.7941H40.0225C41.1861 26.7941 42.1294 27.7374 42.1294 28.9011V36.2754C42.1294 37.439 41.1861 38.3824 40.0225 38.3824H23.3775C22.2139 38.3824 21.2706 37.439 21.2706 36.2754V28.9011C21.2706 27.7374 22.2139 26.7941 23.3775 26.7941Z" fill="#FF3D00" fill-opacity="0.1"/>
<path d="M49.4 20.1588H49.9C49.9 19.9356 49.752 19.7394 49.5374 19.6781L49.4 20.1588ZM49.4 41.0176L49.5374 41.4984C49.752 41.4371 49.9 41.2409 49.9 41.0176H49.4ZM10 41.0176H9.5C9.5 41.2409 9.64799 41.4371 9.86264 41.4984L10 41.0176ZM10 20.1588L9.86264 19.6781C9.64799 19.7394 9.5 19.9356 9.5 20.1588H10ZM14.0559 42.1765L13.9185 42.6572C13.9632 42.67 14.0094 42.6765 14.0559 42.6765V42.1765ZM45.3441 19L45.4815 18.5192C45.4368 18.5065 45.3906 18.5 45.3441 18.5V19ZM45.3441 42.1765V42.6765C45.3906 42.6765 45.4368 42.67 45.4815 42.6572L45.3441 42.1765ZM14.0559 19V18.5C14.0094 18.5 13.9632 18.5065 13.9185 18.5192L14.0559 19ZM23.2738 31.8791C22.9977 31.8791 22.7738 32.103 22.7738 32.3791C22.7738 32.6553 22.9977 32.8791 23.2738 32.8791V31.8791ZM36.1262 32.8791C36.4023 32.8791 36.6262 32.6553 36.6262 32.3791C36.6262 32.103 36.4023 31.8791 36.1262 31.8791V32.8791ZM48.9 20.1588V41.0176H49.9V20.1588H48.9ZM10.5 41.0176V20.1588H9.5V41.0176H10.5ZM14.1932 41.6957L10.1374 40.5369L9.86264 41.4984L13.9185 42.6572L14.1932 41.6957ZM45.2068 19.4808L49.2626 20.6396L49.5374 19.6781L45.4815 18.5192L45.2068 19.4808ZM49.2626 40.5369L45.2068 41.6957L45.4815 42.6572L49.5374 41.4984L49.2626 40.5369ZM45.3441 41.6765H14.0559V42.6765H45.3441V41.6765ZM44.8441 19V42.1765H45.8441V19H44.8441ZM10.1374 20.6396L14.1932 19.4808L13.9185 18.5192L9.86264 19.6781L10.1374 20.6396ZM14.5559 42.1765V19H13.5559V42.1765H14.5559ZM14.0559 19.5H45.3441V18.5H14.0559V19.5ZM21.3775 25.2941H38.0225V24.2941H21.3775V25.2941ZM39.6294 26.9011V34.2754H40.6294V26.9011H39.6294ZM38.0225 35.8824H21.3775V36.8824H38.0225V35.8824ZM19.7706 34.2754V26.9011H18.7706V34.2754H19.7706ZM21.3775 35.8824C20.49 35.8824 19.7706 35.1629 19.7706 34.2754H18.7706C18.7706 35.7152 19.9378 36.8824 21.3775 36.8824V35.8824ZM39.6294 34.2754C39.6294 35.1629 38.91 35.8824 38.0225 35.8824V36.8824C39.4622 36.8824 40.6294 35.7152 40.6294 34.2754H39.6294ZM38.0225 25.2941C38.91 25.2941 39.6294 26.0136 39.6294 26.9011H40.6294C40.6294 25.4613 39.4622 24.2941 38.0225 24.2941V25.2941ZM21.3775 24.2941C19.9378 24.2941 18.7706 25.4613 18.7706 26.9011H19.7706C19.7706 26.0136 20.49 25.2941 21.3775 25.2941V24.2941ZM23.2738 32.8791H36.1262V31.8791H23.2738V32.8791Z" fill="#FF3D00"/>
</svg>
