<svg width="60" height="60" viewBox="0 0 60 60" fill="none" xmlns="http://www.w3.org/2000/svg">
<path d="M16.8 24.65H47.2C49.2987 24.65 51 26.3513 51 28.45V44.6C51 46.6987 49.2987 48.4 47.2 48.4H16.8C14.7013 48.4 13 46.6987 13 44.6V28.45C13 26.3513 14.7013 24.65 16.8 24.65Z" fill="#FF3D00" fill-opacity="0.1"/>
<path d="M20.5 16H39.5V18.85H20.5V16Z" fill="#FF3D00" fill-opacity="0.3"/>
<path d="M39.5 18.85V16H20.5V18.85M39.5 18.85H20.5M39.5 18.85V22.175M20.5 18.85V22.175M42.35 35.95V31.2H17.65V35.95M14.8 46.4H45.2C47.2987 46.4 49 44.6987 49 42.6V26.45C49 24.3513 47.2987 22.65 45.2 22.65H14.8C12.7013 22.65 11 24.3513 11 26.45V42.6C11 44.6987 12.7013 46.4 14.8 46.4Z" stroke="#FF3D00" stroke-linecap="round" stroke-linejoin="round"/>
</svg>
