<svg width="60" height="60" viewBox="0 0 60 60" fill="none" xmlns="http://www.w3.org/2000/svg">
<path d="M32.2977 26.9946C31.639 27.6533 30.5711 27.6533 29.9124 26.9946C29.2537 26.3359 29.2537 25.2679 29.9124 24.6092C30.5711 23.9505 31.639 23.9505 32.2977 24.6092C32.9564 25.2679 32.9564 26.3359 32.2977 26.9946Z" fill="#FF3D00" fill-opacity="0.1"/>
<path d="M27.527 31.7653C26.8683 32.424 25.8003 32.424 25.1416 31.7653C24.4829 31.1066 24.4829 30.0387 25.1416 29.38C25.8003 28.7213 26.8683 28.7213 27.527 29.38C28.1857 30.0387 28.1857 31.1066 27.527 31.7653Z" fill="#FF3D00" fill-opacity="0.1"/>
<path d="M22.7563 36.5361C22.0976 37.1948 21.0296 37.1948 20.3709 36.5361C19.7122 35.8774 19.7122 34.8094 20.3709 34.1507C21.0296 33.492 22.0976 33.492 22.7563 34.1507C23.415 34.8094 23.415 35.8774 22.7563 36.5361Z" fill="#FF3D00" fill-opacity="0.1"/>
<path d="M29.9124 43.6922C29.2537 44.3509 28.1857 44.3509 27.527 43.6922C26.8683 43.0335 26.8683 41.9655 27.527 41.3068C28.1857 40.6481 29.2537 40.6481 29.9124 41.3068C30.5711 41.9655 30.5711 43.0335 29.9124 43.6922Z" fill="#FF3D00" fill-opacity="0.1"/>
<path d="M34.6831 38.9214C34.0244 39.5801 32.9564 39.5801 32.2977 38.9214C31.639 38.2627 31.639 37.1948 32.2977 36.5361C32.9564 35.8774 34.0244 35.8774 34.6831 36.5361C35.3418 37.1948 35.3418 38.2627 34.6831 38.9214Z" fill="#FF3D00" fill-opacity="0.1"/>
<path d="M39.4538 34.1507C38.7951 34.8094 37.7272 34.8094 37.0685 34.1507C36.4098 33.492 36.4098 32.424 37.0685 31.7653C37.7272 31.1066 38.7951 31.1066 39.4538 31.7653C40.1125 32.424 40.1125 33.492 39.4538 34.1507Z" fill="#FF3D00" fill-opacity="0.1"/>
<path d="M44.2246 29.38C43.5659 30.0387 42.4979 30.0387 41.8392 29.38C41.1805 28.7213 41.1805 27.6533 41.8392 26.9946C42.4979 26.3359 43.5659 26.3359 44.2246 26.9946C44.8833 27.6533 44.8833 28.7213 44.2246 29.38Z" fill="#FF3D00" fill-opacity="0.1"/>
<path fill-rule="evenodd" clip-rule="evenodd" d="M37.6648 13.2788L50.7843 26.3983C51.1137 26.7276 51.1137 27.2616 50.7843 27.591L27.527 50.8483C27.1976 51.1776 26.6637 51.1776 26.3343 50.8483L13.2148 37.7288C12.8854 37.3994 12.8854 36.8654 13.2148 36.5361L36.4721 13.2788C36.8015 12.9494 37.3354 12.9494 37.6648 13.2788ZM34.6831 22.2239C35.3418 22.8826 36.4098 22.8826 37.0685 22.2239C37.7272 21.5652 37.7272 20.4972 37.0685 19.8385C36.4098 19.1798 35.3418 19.1798 34.6831 19.8385C34.0244 20.4972 34.0244 21.5652 34.6831 22.2239ZM41.8392 29.38C42.4979 30.0387 43.5659 30.0387 44.2246 29.38C44.8833 28.7213 44.8833 27.6533 44.2246 26.9946C43.5659 26.3359 42.4979 26.3359 41.8392 26.9946C41.1805 27.6533 41.1805 28.7213 41.8392 29.38ZM29.9124 26.9946C30.5711 27.6533 31.639 27.6533 32.2977 26.9946C32.9564 26.3359 32.9564 25.2679 32.2977 24.6092C31.639 23.9505 30.5711 23.9505 29.9124 24.6092C29.2537 25.2679 29.2537 26.3359 29.9124 26.9946ZM37.0685 34.1507C37.7272 34.8094 38.7951 34.8094 39.4538 34.1507C40.1125 33.492 40.1125 32.424 39.4538 31.7653C38.7951 31.1066 37.7272 31.1066 37.0685 31.7653C36.4098 32.424 36.4098 33.492 37.0685 34.1507ZM25.1416 31.7653C25.8003 32.424 26.8683 32.424 27.527 31.7653C28.1857 31.1066 28.1857 30.0387 27.527 29.38C26.8683 28.7213 25.8003 28.7213 25.1416 29.38C24.4829 30.0387 24.4829 31.1066 25.1416 31.7653ZM32.2977 38.9214C32.9564 39.5801 34.0244 39.5801 34.6831 38.9214C35.3418 38.2627 35.3418 37.1948 34.6831 36.5361C34.0244 35.8774 32.9564 35.8774 32.2977 36.5361C31.639 37.1948 31.639 38.2627 32.2977 38.9214ZM20.3709 36.5361C21.0296 37.1948 22.0976 37.1948 22.7563 36.5361C23.415 35.8774 23.415 34.8094 22.7563 34.1507C22.0976 33.492 21.0296 33.492 20.3709 34.1507C19.7122 34.8094 19.7122 35.8774 20.3709 36.5361ZM27.527 43.6922C28.1857 44.3509 29.2537 44.3509 29.9124 43.6922C30.5711 43.0335 30.5711 41.9655 29.9124 41.3068C29.2537 40.6481 28.1857 40.6481 27.527 41.3068C26.8683 41.9655 26.8683 43.0335 27.527 43.6922Z" fill="#FF3D00" fill-opacity="0.1"/>
<path d="M37.0685 22.2239C36.4098 22.8826 35.3418 22.8826 34.6831 22.2239C34.0244 21.5652 34.0244 20.4972 34.6831 19.8385C35.3418 19.1798 36.4098 19.1798 37.0685 19.8385C37.7272 20.4972 37.7272 21.5652 37.0685 22.2239Z" fill="#FF3D00" fill-opacity="0.1"/>
<path d="M35.0685 20.2239C34.4098 20.8826 33.3418 20.8826 32.6831 20.2239C32.0244 19.5652 32.0244 18.4972 32.6831 17.8385C33.3418 17.1798 34.4098 17.1798 35.0685 17.8385C35.7272 18.4972 35.7272 19.5652 35.0685 20.2239Z" fill="#FF3D00" fill-opacity="0.3"/>
<path d="M30.2977 24.9946C29.639 25.6533 28.5711 25.6533 27.9124 24.9946C27.2537 24.3359 27.2537 23.2679 27.9124 22.6092C28.5711 21.9505 29.639 21.9505 30.2977 22.6092C30.9564 23.2679 30.9564 24.3359 30.2977 24.9946Z" fill="#FF3D00" fill-opacity="0.3"/>
<path d="M25.527 29.7653C24.8683 30.424 23.8003 30.424 23.1416 29.7653C22.4829 29.1066 22.4829 28.0387 23.1416 27.38C23.8003 26.7213 24.8683 26.7213 25.527 27.38C26.1857 28.0387 26.1857 29.1066 25.527 29.7653Z" fill="#FF3D00" fill-opacity="0.3"/>
<path d="M20.7563 34.5361C20.0976 35.1948 19.0296 35.1948 18.3709 34.5361C17.7122 33.8774 17.7122 32.8094 18.3709 32.1507C19.0296 31.492 20.0976 31.492 20.7563 32.1507C21.415 32.8094 21.415 33.8774 20.7563 34.5361Z" fill="#FF3D00" fill-opacity="0.3"/>
<path d="M27.9124 41.6922C27.2537 42.3509 26.1857 42.3509 25.527 41.6922C24.8683 41.0335 24.8683 39.9655 25.527 39.3068C26.1857 38.6481 27.2537 38.6481 27.9124 39.3068C28.5711 39.9655 28.5711 41.0335 27.9124 41.6922Z" fill="#FF3D00" fill-opacity="0.3"/>
<path d="M32.6831 36.9214C32.0244 37.5801 30.9564 37.5801 30.2977 36.9214C29.639 36.2627 29.639 35.1948 30.2977 34.5361C30.9564 33.8774 32.0244 33.8774 32.6831 34.5361C33.3418 35.1948 33.3418 36.2627 32.6831 36.9214Z" fill="#FF3D00" fill-opacity="0.3"/>
<path d="M37.4538 32.1507C36.7951 32.8094 35.7272 32.8094 35.0685 32.1507C34.4098 31.492 34.4098 30.424 35.0685 29.7653C35.7272 29.1066 36.7951 29.1066 37.4538 29.7653C38.1125 30.424 38.1125 31.492 37.4538 32.1507Z" fill="#FF3D00" fill-opacity="0.3"/>
<path d="M42.2246 27.38C41.5659 28.0387 40.4979 28.0387 39.8392 27.38C39.1805 26.7213 39.1805 25.6533 39.8392 24.9946C40.4979 24.3359 41.5659 24.3359 42.2246 24.9946C42.8833 25.6533 42.8833 26.7213 42.2246 27.38Z" fill="#FF3D00" fill-opacity="0.3"/>
<path d="M39.2428 20.2239L20.1599 39.3068M11.2148 35.7288L24.3343 48.8483C24.6637 49.1776 25.1976 49.1776 25.527 48.8483L48.7843 25.591C49.1137 25.2616 49.1137 24.7276 48.7843 24.3983L35.6648 11.2788C35.3354 10.9494 34.8015 10.9494 34.4721 11.2788L11.2148 34.5361C10.8854 34.8654 10.8854 35.3994 11.2148 35.7288ZM35.0685 20.2239C34.4098 20.8826 33.3418 20.8826 32.6831 20.2239C32.0244 19.5652 32.0244 18.4972 32.6831 17.8385C33.3418 17.1798 34.4098 17.1798 35.0685 17.8385C35.7272 18.4972 35.7272 19.5652 35.0685 20.2239ZM42.2246 27.38C41.5659 28.0387 40.4979 28.0387 39.8392 27.38C39.1805 26.7213 39.1805 25.6533 39.8392 24.9946C40.4979 24.3359 41.5659 24.3359 42.2246 24.9946C42.8833 25.6533 42.8833 26.7213 42.2246 27.38ZM30.2977 24.9946C29.639 25.6533 28.5711 25.6533 27.9124 24.9946C27.2537 24.3359 27.2537 23.2679 27.9124 22.6092C28.5711 21.9505 29.639 21.9505 30.2977 22.6092C30.9564 23.2679 30.9564 24.3359 30.2977 24.9946ZM37.4538 32.1507C36.7951 32.8094 35.7272 32.8094 35.0685 32.1507C34.4098 31.492 34.4098 30.424 35.0685 29.7653C35.7272 29.1066 36.7951 29.1066 37.4538 29.7653C38.1125 30.424 38.1125 31.492 37.4538 32.1507ZM25.527 29.7653C24.8683 30.424 23.8003 30.424 23.1416 29.7653C22.4829 29.1066 22.4829 28.0387 23.1416 27.38C23.8003 26.7213 24.8683 26.7213 25.527 27.38C26.1857 28.0387 26.1857 29.1066 25.527 29.7653ZM32.6831 36.9214C32.0244 37.5801 30.9564 37.5801 30.2977 36.9214C29.639 36.2627 29.639 35.1948 30.2977 34.5361C30.9564 33.8774 32.0244 33.8774 32.6831 34.5361C33.3418 35.1948 33.3418 36.2627 32.6831 36.9214ZM20.7563 34.5361C20.0976 35.1948 19.0296 35.1948 18.3709 34.5361C17.7122 33.8774 17.7122 32.8094 18.3709 32.1507C19.0296 31.492 20.0976 31.492 20.7563 32.1507C21.415 32.8094 21.415 33.8774 20.7563 34.5361ZM27.9124 41.6922C27.2537 42.3509 26.1857 42.3509 25.527 41.6922C24.8683 41.0335 24.8683 39.9655 25.527 39.3068C26.1857 38.6481 27.2537 38.6481 27.9124 39.3068C28.5711 39.9655 28.5711 41.0335 27.9124 41.6922Z" stroke="#FF3D00" stroke-linecap="round" stroke-linejoin="round"/>
</svg>
