<svg width="60" height="60" viewBox="0 0 60 60" fill="none" xmlns="http://www.w3.org/2000/svg">
<path fill-rule="evenodd" clip-rule="evenodd" d="M49.711 26.9158L27.2205 49.4063C27.2205 49.4063 21.5978 50.5309 17.3808 46.3139C13.1639 42.0969 14.2884 36.4743 14.2884 36.4743L36.779 13.9837C36.779 13.9837 42.4016 12.8592 46.6186 17.0762C50.8356 21.2931 49.711 26.9158 49.711 26.9158ZM42.1205 21.5743C42.431 21.8848 42.9345 21.8848 43.245 21.5743C43.5555 21.2637 43.5555 20.7603 43.245 20.4497C42.9345 20.1392 42.431 20.1392 42.1205 20.4497C41.8099 20.7603 41.8099 21.2637 42.1205 21.5743ZM23.5658 40.129C23.8763 40.4395 23.8763 40.943 23.5658 41.2535C23.2552 41.564 22.7518 41.564 22.4412 41.2535C22.1307 40.943 22.1307 40.4395 22.4412 40.129C22.7518 39.8185 23.2552 39.8185 23.5658 40.129ZM42.4016 26.3535C42.7121 26.664 43.2156 26.664 43.5261 26.3535C43.8367 26.043 43.8367 25.5395 43.5261 25.229C43.2156 24.9185 42.7121 24.9185 42.4016 25.229C42.0911 25.5395 42.0911 26.043 42.4016 26.3535ZM28.345 40.4101C28.6555 40.7206 28.6555 41.2241 28.345 41.5346C28.0345 41.8452 27.531 41.8452 27.2205 41.5346C26.9099 41.2241 26.9099 40.7206 27.2205 40.4101C27.531 40.0996 28.0345 40.0996 28.345 40.4101ZM37.3412 21.2931C37.6518 21.6037 38.1552 21.6037 38.4658 21.2931C38.7763 20.9826 38.7763 20.4791 38.4658 20.1686C38.1552 19.8581 37.6518 19.8581 37.3412 20.1686C37.0307 20.4791 37.0307 20.9826 37.3412 21.2931ZM23.2846 35.3497C23.5951 35.6603 23.5951 36.1637 23.2846 36.4743C22.9741 36.7848 22.4706 36.7848 22.1601 36.4743C21.8496 36.1637 21.8496 35.6603 22.1601 35.3497C22.4706 35.0392 22.9741 35.0392 23.2846 35.3497Z" fill="#FF3D00" fill-opacity="0.1"/>
<path d="M38.4658 21.2931C38.1552 21.6037 37.6518 21.6037 37.3412 21.2931C37.0307 20.9826 37.0307 20.4791 37.3412 20.1686C37.6518 19.8581 38.1552 19.8581 38.4658 20.1686C38.7763 20.4791 38.7763 20.9826 38.4658 21.2931Z" fill="#FF3D00" fill-opacity="0.1"/>
<path d="M43.245 21.5743C42.9345 21.8848 42.431 21.8848 42.1205 21.5743C41.8099 21.2637 41.8099 20.7603 42.1205 20.4497C42.431 20.1392 42.9345 20.1392 43.245 20.4497C43.5555 20.7603 43.5555 21.2637 43.245 21.5743Z" fill="#FF3D00" fill-opacity="0.1"/>
<path d="M43.5261 26.3535C43.2156 26.664 42.7121 26.664 42.4016 26.3535C42.0911 26.043 42.0911 25.5395 42.4016 25.229C42.7121 24.9185 43.2156 24.9185 43.5261 25.229C43.8367 25.5395 43.8367 26.043 43.5261 26.3535Z" fill="#FF3D00" fill-opacity="0.1"/>
<path d="M28.345 41.5346C28.6555 41.2241 28.6555 40.7206 28.345 40.4101C28.0345 40.0996 27.531 40.0996 27.2205 40.4101C26.9099 40.7206 26.9099 41.2241 27.2205 41.5346C27.531 41.8452 28.0345 41.8452 28.345 41.5346Z" fill="#FF3D00" fill-opacity="0.1"/>
<path d="M23.5658 41.2535C23.8763 40.943 23.8763 40.4395 23.5658 40.129C23.2552 39.8185 22.7518 39.8185 22.4412 40.129C22.1307 40.4395 22.1307 40.943 22.4412 41.2535C22.7518 41.564 23.2552 41.564 23.5658 41.2535Z" fill="#FF3D00" fill-opacity="0.1"/>
<path d="M23.2846 36.4743C23.5951 36.1637 23.5951 35.6603 23.2846 35.3497C22.9741 35.0392 22.4706 35.0392 22.1601 35.3497C21.8496 35.6603 21.8496 36.1637 22.1601 36.4743C22.4706 36.7848 22.9741 36.7848 23.2846 36.4743Z" fill="#FF3D00" fill-opacity="0.1"/>
<path d="M29.1563 22.6667L37.028 30.5384M23.5337 28.2894L31.4054 36.1611M34.779 11.9837L12.2884 34.4743C12.2884 34.4743 11.1639 40.0969 15.3808 44.3139C19.5978 48.5309 25.2205 47.4063 25.2205 47.4063L47.711 24.9158C47.711 24.9158 48.8356 19.2931 44.6186 15.0762C40.4016 10.8592 34.779 11.9837 34.779 11.9837ZM41.245 19.5743C40.9345 19.8848 40.431 19.8848 40.1205 19.5743C39.8099 19.2637 39.8099 18.7603 40.1205 18.4497C40.431 18.1392 40.9345 18.1392 41.245 18.4497C41.5555 18.7603 41.5555 19.2637 41.245 19.5743ZM21.5658 39.2535C21.8763 38.943 21.8763 38.4395 21.5658 38.129C21.2552 37.8185 20.7518 37.8185 20.4412 38.129C20.1307 38.4395 20.1307 38.943 20.4412 39.2535C20.7518 39.564 21.2552 39.564 21.5658 39.2535ZM41.5261 24.3535C41.2156 24.664 40.7121 24.664 40.4016 24.3535C40.0911 24.043 40.0911 23.5395 40.4016 23.229C40.7121 22.9185 41.2156 22.9185 41.5261 23.229C41.8367 23.5395 41.8367 24.043 41.5261 24.3535ZM26.345 39.5346C26.6555 39.2241 26.6555 38.7206 26.345 38.4101C26.0345 38.0996 25.531 38.0996 25.2205 38.4101C24.9099 38.7206 24.9099 39.2241 25.2205 39.5346C25.531 39.8452 26.0345 39.8452 26.345 39.5346ZM36.4658 19.2931C36.1552 19.6037 35.6518 19.6037 35.3412 19.2931C35.0307 18.9826 35.0307 18.4791 35.3412 18.1686C35.6518 17.8581 36.1552 17.8581 36.4658 18.1686C36.7763 18.4791 36.7763 18.9826 36.4658 19.2931ZM21.2846 34.4743C21.5951 34.1637 21.5951 33.6603 21.2846 33.3497C20.9741 33.0392 20.4706 33.0392 20.1601 33.3497C19.8496 33.6603 19.8496 34.1637 20.1601 34.4743C20.4706 34.7848 20.9741 34.7848 21.2846 34.4743Z" stroke="#FF3D00" stroke-linecap="round" stroke-linejoin="round"/>
</svg>
