<svg width="60" height="60" viewBox="0 0 60 60" fill="none" xmlns="http://www.w3.org/2000/svg">
<path d="M21.1429 13H19.3333C19.3333 13 16.1667 13.4524 16.1667 21.1429C16.1667 28.8333 19.3333 29.2857 19.3333 29.2857H25.6667V49.1905C25.6667 50.1898 26.4768 51 27.4762 51H28.381C29.3803 51 30.1905 50.1898 30.1905 49.1905V22.0476C30.1905 17.0508 26.1397 13 21.1429 13Z" fill="#FF3D00" fill-opacity="0.1"/>
<path d="M44.6667 13H42.8571C37.8603 13 33.8095 17.0508 33.8095 22.0476V49.1905C33.8095 50.1898 34.6197 51 35.619 51H36.5238C37.5232 51 38.3333 50.1898 38.3333 49.1905V29.2857H44.6667C44.6667 29.2857 47.8333 28.8333 47.8333 21.1429C47.8333 13.4524 44.6667 13 44.6667 13Z" fill="#FF3D00" fill-opacity="0.1"/>
<path d="M17.3333 27.2857H23.6667V47.1905C23.6667 48.1898 24.4768 49 25.4762 49H26.381C27.3803 49 28.1905 48.1898 28.1905 47.1905V20.0476C28.1905 15.0508 24.1397 11 19.1429 11H17.3333M17.3333 27.2857C13.8355 27.2857 11 24.4502 11 20.9524V17.3333C11 13.8355 13.8355 11 17.3333 11M17.3333 27.2857C17.3333 27.2857 14.1667 26.8333 14.1667 19.1429C14.1667 11.4524 17.3333 11 17.3333 11M42.6667 27.2857H36.3333V47.1905C36.3333 48.1898 35.5232 49 34.5238 49H33.619C32.6197 49 31.8095 48.1898 31.8095 47.1905V20.0476C31.8095 15.0508 35.8603 11 40.8571 11H42.6667M42.6667 27.2857C46.1645 27.2857 49 24.4502 49 20.9524V17.3333C49 13.8355 46.1645 11 42.6667 11M42.6667 27.2857C42.6667 27.2857 45.8333 26.8333 45.8333 19.1429C45.8333 11.4524 42.6667 11 42.6667 11" stroke="#FF3D00" stroke-linecap="round" stroke-linejoin="round"/>
</svg>
