<svg width="60" height="60" viewBox="0 0 60 60" fill="none" xmlns="http://www.w3.org/2000/svg">
<path d="M31.6744 31.6047V35.5814L41.3953 31.6047H31.6744Z" fill="#FF3D00" fill-opacity="0.1"/>
<path fill-rule="evenodd" clip-rule="evenodd" d="M17.5349 21H45.814C47.7662 21 49.3488 22.5826 49.3488 24.5349V28.0698H52V35.1395H49.3488V38.6744C49.3488 40.6267 47.7662 42.2093 45.814 42.2093H17.5349C15.5826 42.2093 14 40.6267 14 38.6744V24.5349C14 22.5826 15.5826 21 17.5349 21ZM21.9535 31.6047L31.6744 27.6279V31.6047H41.3953L31.6744 35.5814V31.6047H21.9535Z" fill="#FF3D00" fill-opacity="0.1"/>
<path d="M31.6744 27.6279L21.9535 31.6047H31.6744V27.6279Z" fill="#FF3D00" fill-opacity="0.1"/>
<path d="M29.6744 25.6279L19.9535 29.6047H29.6744V25.6279Z" fill="#FF3D00" fill-opacity="0.3"/>
<path d="M29.6744 29.6047V33.5814L39.3953 29.6047H29.6744Z" fill="#FF3D00" fill-opacity="0.3"/>
<path d="M29.6744 29.6047V25.6279L19.9535 29.6047H29.6744ZM29.6744 29.6047V33.5814L39.3953 29.6047H29.6744ZM47.3488 33.1395V36.6744C47.3488 38.6267 45.7662 40.2093 43.814 40.2093H15.5349C13.5826 40.2093 12 38.6267 12 36.6744V22.5349C12 20.5826 13.5826 19 15.5349 19H43.814C45.7662 19 47.3488 20.5826 47.3488 22.5349V26.0698H50V33.1395H47.3488Z" stroke="#FF3D00" stroke-linecap="round" stroke-linejoin="round"/>
</svg>
