<svg width="60" height="60" viewBox="0 0 60 60" fill="none" xmlns="http://www.w3.org/2000/svg">
<path d="M36.9677 15H29.7419C28.7443 15 27.9355 15.8088 27.9355 16.8065V18.6129V38.4839V39.3871C27.9355 40.3848 28.7443 41.1936 29.7419 41.1936H36.9677V36.6774V33.9677V22.2258V19.5161V15Z" fill="#FF3D00" fill-opacity="0.1"/>
<path d="M27.9355 38.4839V18.6129H21.6129C19.6176 18.6129 18 20.2305 18 22.2258V38.4839H20.7097H25.2258H27.9355Z" fill="#FF3D00" fill-opacity="0.1"/>
<path d="M25.2258 38.4839H20.7097V51.129H25.2258V38.4839Z" fill="#FF3D00" fill-opacity="0.1"/>
<path d="M23.2258 49.129V36.4839H18.7097V49.129M34.9677 13H27.7419C26.7443 13 25.9355 13.8088 25.9355 14.8065V37.3871C25.9355 38.3848 26.7443 39.1936 27.7419 39.1936H34.9677V13ZM34.9677 17.5161H42.6452C43.3934 17.5161 44 18.1227 44 18.871C44 19.6192 43.3934 20.2258 42.6452 20.2258H34.9677V17.5161ZM34.9677 31.9677H42.6452C43.3934 31.9677 44 32.5743 44 33.3226C44 34.0708 43.3934 34.6774 42.6452 34.6774H34.9677V31.9677ZM25.9355 16.6129H19.6129C17.6176 16.6129 16 18.2305 16 20.2258V36.4839H25.9355V16.6129Z" stroke="#FF3D00" stroke-linecap="round" stroke-linejoin="round"/>
</svg>
