<svg width="60" height="60" viewBox="0 0 60 60" fill="none" xmlns="http://www.w3.org/2000/svg">
<path d="M35.3333 35.1667C35.3333 36.4006 34.6632 37.4777 33.6667 38.054V40.1667C33.6667 41.0871 32.9204 41.8333 32 41.8333C31.0796 41.8333 30.3333 41.0871 30.3333 40.1667V38.054C29.3368 37.4777 28.6667 36.4006 28.6667 35.1667C28.6667 33.3256 30.1592 31.8333 32 31.8333C33.8408 31.8333 35.3333 33.3256 35.3333 35.1667Z" fill="#FF3D00" fill-opacity="0.1"/>
<path fill-rule="evenodd" clip-rule="evenodd" d="M18.6667 25.1667H22.8333H41.1667H45.3333C46.2538 25.1667 47 25.9129 47 26.8333V46.8333C47 47.7538 46.2538 48.5 45.3333 48.5H18.6667C17.7462 48.5 17 47.7538 17 46.8333V26.8333C17 25.9129 17.7462 25.1667 18.6667 25.1667ZM35.3333 35.1667C35.3333 36.4006 34.6632 37.4777 33.6667 38.054V40.1667C33.6667 41.0871 32.9204 41.8333 32 41.8333C31.0796 41.8333 30.3333 41.0871 30.3333 40.1667V38.054C29.3368 37.4777 28.6667 36.4006 28.6667 35.1667C28.6667 33.3256 30.1592 31.8333 32 31.8333C33.8408 31.8333 35.3333 33.3256 35.3333 35.1667Z" fill="#FF3D00" fill-opacity="0.1"/>
<path d="M16.6667 46.5H43.3333C44.2538 46.5 45 45.7538 45 44.8333V24.8333C45 23.9129 44.2538 23.1667 43.3333 23.1667H16.6667C15.7462 23.1667 15 23.9129 15 24.8333V44.8333C15 45.7538 15.7462 46.5 16.6667 46.5ZM39.1667 23.1667V18.1667C39.1667 13.1041 35.0626 9 30 9C24.9374 9 20.8333 13.1041 20.8333 18.1667V23.1667H39.1667Z" stroke="#FF3D00" stroke-linecap="round" stroke-linejoin="round"/>
<path d="M33.3337 33.1668C33.3337 34.4008 32.6635 35.4778 31.667 36.0542V38.1668C31.667 39.0872 30.9207 39.8335 30.0003 39.8335C29.0799 39.8335 28.3337 39.0872 28.3337 38.1668V36.0542C27.3372 35.4778 26.667 34.4008 26.667 33.1668C26.667 31.3258 28.1595 29.8335 30.0003 29.8335C31.8411 29.8335 33.3337 31.3258 33.3337 33.1668Z" fill="#FF3D00" fill-opacity="0.3" stroke="#FF3D00" stroke-linecap="round" stroke-linejoin="round"/>
</svg>
